<svg width="41" height="41" viewBox="0 0 41 41" fill="none" xmlns="http://www.w3.org/2000/svg">
<path d="M30.5283 37.3613C29.9987 37.3613 29.4691 37.2246 28.9908 36.9342L22.1404 32.8684C21.4229 32.8513 20.7054 32.8001 20.022 32.6976C19.5608 32.6293 19.1679 32.3217 18.997 31.8775C18.8262 31.4334 18.9116 30.955 19.2191 30.5963C20.3466 29.2809 20.9275 27.7092 20.9275 26.0351C20.9275 21.9009 17.2887 18.5354 12.8129 18.5354C11.1387 18.5354 9.53286 18.9968 8.18328 19.8851C7.80745 20.1243 7.3462 20.1584 6.9362 19.9705C6.54329 19.7826 6.25288 19.4067 6.20163 18.9625C6.15038 18.4842 6.11621 18.0059 6.11621 17.5105C6.11621 9.03715 13.462 2.15259 22.482 2.15259C31.502 2.15259 38.8479 9.03715 38.8479 17.5105C38.8479 22.1572 36.6954 26.428 32.9029 29.3492L33.4837 33.9959C33.6204 35.1576 33.1079 36.2509 32.1341 36.883C31.6558 37.1905 31.092 37.3613 30.5283 37.3613ZM22.4649 30.2888C22.7041 30.2717 22.9433 30.3401 23.1483 30.4768L30.3062 34.7305C30.4941 34.8501 30.6479 34.7989 30.7504 34.7305C30.8358 34.6793 30.9725 34.5426 30.9383 34.3034L30.272 28.905C30.2208 28.4267 30.4258 27.9655 30.8016 27.6922C34.2866 25.2493 36.2854 21.525 36.2854 17.4763C36.2854 10.4209 30.1012 4.68089 22.482 4.68089C15.1533 4.68089 9.13995 10.011 8.69579 16.7076C9.97704 16.2122 11.3608 15.9389 12.7958 15.9389C18.6896 15.9389 23.4729 20.4488 23.4729 26.0009C23.49 27.5042 23.1312 28.9563 22.4649 30.2888Z" fill="#292D32"/>
<path d="M7.82402 38.8648C7.37986 38.8648 6.95276 38.7452 6.55985 38.489C5.7911 37.9936 5.38111 37.1394 5.48361 36.234L5.82528 33.6031C3.51903 31.7239 2.15234 28.9393 2.15234 26.0181C2.15234 22.6868 3.89486 19.5777 6.81611 17.7156C8.5757 16.571 10.6598 15.9561 12.8294 15.9561C18.7232 15.9561 23.5065 20.466 23.5065 26.0181C23.5065 28.2731 22.6865 30.4939 21.1832 32.2535C19.2528 34.5939 16.3657 35.9606 13.1882 36.0631L9.01985 38.5402C8.64402 38.7623 8.23402 38.8648 7.82402 38.8648ZM12.8124 18.5186C11.1382 18.5186 9.53234 18.9798 8.18276 19.8681C5.99609 21.2689 4.69777 23.5581 4.69777 26.0181C4.69777 28.3926 5.85944 30.5623 7.90944 31.9631C8.30236 32.2365 8.50735 32.6976 8.4561 33.176L8.08026 36.0973L12.1632 33.6715C12.3682 33.5519 12.5903 33.4835 12.8124 33.4835C15.3236 33.4835 17.6982 32.4073 19.2015 30.5794C20.329 29.2469 20.9269 27.6751 20.9269 26.001C20.9269 21.8839 17.2882 18.5186 12.8124 18.5186Z" fill="#292D32"/>
</svg>
