<svg width="42" height="41" viewBox="0 0 42 41" fill="none" xmlns="http://www.w3.org/2000/svg">
<circle cx="21.1006" cy="13.6667" r="4.27083" stroke="#0D1112" stroke-opacity="0.61" stroke-width="1.70833" stroke-linecap="round"/>
<path d="M24.121 11.1042C24.4589 10.5189 24.9627 10.0471 25.5688 9.74817C26.1748 9.4493 26.8559 9.33685 27.5259 9.42505C28.1959 9.51326 28.8246 9.79815 29.3327 10.2437C29.8407 10.6893 30.2053 11.2755 30.3802 11.9282C30.5551 12.5809 30.5325 13.2709 30.3153 13.9107C30.098 14.5506 29.696 15.1117 29.1598 15.5231C28.6237 15.9345 27.9777 16.1776 27.3034 16.2218C26.6291 16.266 25.9568 16.1093 25.3716 15.7714" stroke="#0D1112" stroke-opacity="0.61" stroke-width="1.70833"/>
<path d="M18.0802 11.1042C17.7423 10.5189 17.2385 10.0471 16.6324 9.74817C16.0263 9.4493 15.3453 9.33685 14.6753 9.42505C14.0053 9.51326 13.3765 9.79815 12.8685 10.2437C12.3604 10.6893 11.9959 11.2755 11.821 11.9282C11.6461 12.5809 11.6687 13.2709 11.8859 13.9107C12.1031 14.5506 12.5052 15.1117 13.0413 15.5231C13.5774 15.9345 14.2235 16.1776 14.8978 16.2218C15.5721 16.266 16.2444 16.1093 16.8296 15.7714" stroke="#0D1112" stroke-opacity="0.61" stroke-width="1.70833"/>
<path d="M33.5653 26.3361L32.7367 26.5436L33.5653 26.3361ZM22.9575 21.5009L22.3267 20.925L21.2668 22.0859L22.8175 22.3436L22.9575 21.5009ZM29.9518 28.1875L29.1313 28.4249L29.3097 29.0417H29.9518V28.1875ZM27.0796 20.5C28.8353 20.5 30.0683 21.3587 30.9717 22.5619C31.8931 23.7891 32.4342 25.3356 32.7367 26.5436L34.3939 26.1286C34.0674 24.8247 33.4565 23.0261 32.3378 21.5361C31.201 20.0221 29.5057 18.7917 27.0796 18.7917V20.5ZM23.5883 22.0769C24.4431 21.1407 25.5603 20.5 27.0796 20.5V18.7917C25.0001 18.7917 23.4469 19.6982 22.3267 20.925L23.5883 22.0769ZM22.8175 22.3436C26.7475 22.9966 28.4103 25.9327 29.1313 28.4249L30.7723 27.9501C29.9675 25.1682 27.9662 21.4674 23.0975 20.6583L22.8175 22.3436ZM32.0252 27.3333H29.9518V29.0417H32.0252V27.3333ZM32.7367 26.5436C32.8287 26.9106 32.559 27.3333 32.0252 27.3333V29.0417C33.5127 29.0417 34.793 27.7224 34.3939 26.1286L32.7367 26.5436Z" fill="#0D1112" fill-opacity="0.61"/>
<path d="M19.2434 21.5009L19.3835 22.3436L20.9341 22.0859L19.8742 20.925L19.2434 21.5009ZM8.63562 26.3361L7.80704 26.1286H7.80704L8.63562 26.3361ZM12.2492 28.1875V29.0417H12.8912L13.0697 28.4249L12.2492 28.1875ZM15.1214 20.5C16.6407 20.5 17.7579 21.1407 18.6127 22.0769L19.8742 20.925C18.7541 19.6982 17.2009 18.7917 15.1214 18.7917V20.5ZM9.4642 26.5436C9.76672 25.3356 10.3078 23.7891 11.2293 22.5619C12.1327 21.3587 13.3657 20.5 15.1214 20.5V18.7917C12.6953 18.7917 10.9999 20.0221 9.86316 21.5361C8.74444 23.026 8.13358 24.8246 7.80704 26.1286L9.4642 26.5436ZM10.1758 27.3333C9.6419 27.3333 9.37228 26.9106 9.4642 26.5436L7.80704 26.1286C7.40791 27.7224 8.68824 29.0417 10.1758 29.0417V27.3333ZM12.2492 27.3333H10.1758V29.0417H12.2492V27.3333ZM13.0697 28.4249C13.7907 25.9327 15.4534 22.9967 19.3835 22.3436L19.1034 20.6583C14.2348 21.4674 12.2335 25.1682 11.4287 27.9501L13.0697 28.4249Z" fill="#0D1112" fill-opacity="0.61"/>
<path d="M21.1004 21.3542C28.0708 21.3542 29.8702 26.9953 30.3346 29.9077C30.4832 30.8395 29.7314 31.6042 28.7879 31.6042H13.4129C12.4694 31.6042 11.7176 30.8395 11.8662 29.9077C12.3307 26.9953 14.13 21.3542 21.1004 21.3542Z" stroke="#0D1112" stroke-opacity="0.61" stroke-width="1.70833" stroke-linecap="round"/>
</svg>
