<svg width="28" height="28" viewBox="0 0 28 28" fill="none" xmlns="http://www.w3.org/2000/svg">
<mask id="path-1-inside-1_408_698" fill="white">
<path d="M6.46332 22.7734C5.75165 22.7734 5.08665 22.5284 4.60832 22.0734C4.00165 21.5017 3.70998 20.6384 3.81498 19.705L4.24665 15.925C4.32832 15.2134 4.75998 14.2684 5.26165 13.755L14.84 3.61668C17.2317 1.08502 19.7283 1.01502 22.26 3.40668C24.7917 5.79835 24.8617 8.29502 22.47 10.8267L12.8917 20.965C12.4017 21.49 11.4917 21.98 10.78 22.0967L7.02332 22.7384C6.82498 22.75 6.64998 22.7734 6.46332 22.7734ZM18.585 3.39502C17.6867 3.39502 16.905 3.95502 16.1117 4.79502L6.53332 14.945C6.29998 15.19 6.03165 15.7734 5.98498 16.1117L5.55332 19.8917C5.50665 20.2767 5.59998 20.5917 5.80998 20.79C6.01998 20.9884 6.33498 21.0584 6.71998 21L10.4767 20.3584C10.815 20.3 11.375 19.9967 11.6083 19.7517L21.1867 9.61335C22.6333 8.07335 23.1583 6.65002 21.0467 4.66668C20.1133 3.76835 19.3083 3.39502 18.585 3.39502Z"/>
</mask>
<path d="M6.46332 22.7734C5.75165 22.7734 5.08665 22.5284 4.60832 22.0734C4.00165 21.5017 3.70998 20.6384 3.81498 19.705L4.24665 15.925C4.32832 15.2134 4.75998 14.2684 5.26165 13.755L14.84 3.61668C17.2317 1.08502 19.7283 1.01502 22.26 3.40668C24.7917 5.79835 24.8617 8.29502 22.47 10.8267L12.8917 20.965C12.4017 21.49 11.4917 21.98 10.78 22.0967L7.02332 22.7384C6.82498 22.75 6.64998 22.7734 6.46332 22.7734ZM18.585 3.39502C17.6867 3.39502 16.905 3.95502 16.1117 4.79502L6.53332 14.945C6.29998 15.19 6.03165 15.7734 5.98498 16.1117L5.55332 19.8917C5.50665 20.2767 5.59998 20.5917 5.80998 20.79C6.01998 20.9884 6.33498 21.0584 6.71998 21L10.4767 20.3584C10.815 20.3 11.375 19.9967 11.6083 19.7517L21.1867 9.61335C22.6333 8.07335 23.1583 6.65002 21.0467 4.66668C20.1133 3.76835 19.3083 3.39502 18.585 3.39502Z" fill="#0D1112" fill-opacity="0.61"/>
<path d="M4.60832 22.0734L6.37445 20.2167L6.36568 20.2084L4.60832 22.0734ZM3.81498 19.705L1.26903 19.4143L1.26855 19.4185L3.81498 19.705ZM4.24665 15.925L1.70086 15.6329L1.7007 15.6343L4.24665 15.925ZM5.26165 13.755L7.09432 15.546L7.10945 15.5305L7.12433 15.5148L5.26165 13.755ZM14.84 3.61668L16.7027 5.37647L16.7027 5.37641L14.84 3.61668ZM22.47 10.8267L24.3327 12.5865L24.3327 12.5864L22.47 10.8267ZM12.8917 20.965L11.029 19.2052L11.0236 19.2109L11.0183 19.2166L12.8917 20.965ZM10.78 22.0967L10.3654 19.5679L10.357 19.5693L10.3485 19.5708L10.78 22.0967ZM7.02332 22.7384L7.17379 25.2964L7.31517 25.2881L7.45476 25.2643L7.02332 22.7384ZM16.1117 4.79502L14.2487 3.03554L14.248 3.0363L16.1117 4.79502ZM6.53332 14.945L8.38894 16.7123L8.397 16.7037L6.53332 14.945ZM5.98498 16.1117L3.44652 15.7616L3.44243 15.7912L3.43903 15.8209L5.98498 16.1117ZM5.55332 19.8917L8.0972 20.2L8.09826 20.1912L8.09927 20.1824L5.55332 19.8917ZM6.71998 21L7.10386 23.5336L7.12768 23.53L7.15143 23.5259L6.71998 21ZM10.4767 20.3584L10.9081 22.8843L10.912 22.8836L10.4767 20.3584ZM11.6083 19.7517L13.4639 21.5189L13.471 21.5115L11.6083 19.7517ZM21.1867 9.61335L23.0493 11.3731L23.0543 11.3678L21.1867 9.61335ZM21.0467 4.66668L19.2696 6.51293L19.2809 6.52379L19.2923 6.53451L21.0467 4.66668ZM6.46332 20.2109C6.40014 20.2109 6.36198 20.1999 6.34807 20.1946C6.33507 20.1898 6.34894 20.1924 6.37443 20.2167L2.84221 23.93C3.8525 24.891 5.17516 25.3359 6.46332 25.3359V20.2109ZM6.36568 20.2084C6.38578 20.2273 6.38286 20.2356 6.37402 20.2092C6.36454 20.181 6.34813 20.1097 6.36142 19.9915L1.26855 19.4185C1.08551 21.0455 1.58275 22.7433 2.85095 23.9383L6.36568 20.2084ZM6.36094 19.9958L6.7926 16.2158L1.7007 15.6343L1.26903 19.4143L6.36094 19.9958ZM6.79244 16.2172C6.79191 16.2218 6.79667 16.1828 6.82088 16.1032C6.84405 16.027 6.87777 15.9375 6.92074 15.845C6.96382 15.7523 7.00871 15.6725 7.04824 15.612C7.08997 15.5481 7.10936 15.5306 7.09432 15.546L3.42898 11.964C2.91763 12.4873 2.53537 13.1204 2.27256 13.6863C2.00809 14.2558 1.78058 14.9382 1.70086 15.6329L6.79244 16.2172ZM7.12433 15.5148L16.7027 5.37647L12.9773 1.8569L3.39898 11.9952L7.12433 15.5148ZM16.7027 5.37641C17.6208 4.40455 18.2428 4.23615 18.5698 4.22691C18.8971 4.21767 19.528 4.35094 20.5003 5.26942L24.0197 1.54395C22.4603 0.0707598 20.5771 -0.956805 18.4252 -0.896046C16.273 -0.835279 14.4508 0.297153 12.9773 1.85696L16.7027 5.37641ZM20.5003 5.26942C21.4721 6.18753 21.6405 6.8095 21.6498 7.13651C21.659 7.46377 21.5257 8.09472 20.6073 9.06696L24.3327 12.5864C25.8059 11.027 26.8335 9.14376 26.7727 6.99186C26.7119 4.8397 25.5795 3.0175 24.0197 1.54395L20.5003 5.26942ZM20.6073 9.0669L11.029 19.2052L14.7543 22.7248L24.3327 12.5865L20.6073 9.0669ZM11.0183 19.2166C11.0249 19.2095 11.0014 19.2351 10.9369 19.2825C10.8753 19.3278 10.7966 19.3781 10.7072 19.4261C10.6177 19.4741 10.5327 19.5117 10.4617 19.5376C10.3873 19.5648 10.3543 19.5698 10.3654 19.5679L11.1945 24.6254C12.4703 24.4163 13.8918 23.649 14.765 22.7135L11.0183 19.2166ZM10.3485 19.5708L6.59187 20.2124L7.45476 25.2643L11.2114 24.6226L10.3485 19.5708ZM6.87284 20.1803C6.79615 20.1848 6.72683 20.1901 6.6713 20.1946C6.64396 20.1968 6.61684 20.1991 6.59517 20.2009C6.57208 20.2028 6.55355 20.2044 6.5362 20.2058C6.46402 20.2115 6.45382 20.2109 6.46332 20.2109V25.3359C6.65948 25.3359 6.83011 25.3235 6.94168 25.3147C7.08047 25.3037 7.10901 25.3002 7.17379 25.2964L6.87284 20.1803ZM18.585 0.832517C16.5594 0.832517 15.1283 2.1042 14.2487 3.03554L17.9746 6.55449C18.2935 6.21682 18.5047 6.05121 18.6308 5.97526C18.732 5.91435 18.6997 5.95752 18.585 5.95752V0.832517ZM14.248 3.0363L4.66963 13.1863L8.397 16.7037L17.9753 6.55373L14.248 3.0363ZM4.67771 13.1778C4.281 13.5943 4.016 14.0905 3.86706 14.4097C3.71345 14.7389 3.51945 15.2328 3.44652 15.7616L8.52345 16.4618C8.51394 16.5308 8.50291 16.5779 8.49768 16.5987C8.4947 16.6106 8.4923 16.619 8.49086 16.6239C8.4894 16.6289 8.48856 16.6314 8.48854 16.6314C8.4885 16.6316 8.48904 16.6299 8.49023 16.6267C8.49141 16.6235 8.49306 16.6192 8.49519 16.6139C8.49958 16.603 8.50504 16.5903 8.51125 16.577C8.52527 16.5469 8.53448 16.532 8.53206 16.5359C8.53025 16.5388 8.52052 16.5544 8.50168 16.5797C8.48413 16.6034 8.44707 16.6512 8.38892 16.7123L4.67771 13.1778ZM3.43903 15.8209L3.00737 19.6009L8.09927 20.1824L8.53094 16.4024L3.43903 15.8209ZM3.00944 19.5833C2.8972 20.5093 3.07826 21.7348 4.05051 22.653L7.56946 18.927C8.12171 19.4486 8.11611 20.044 8.0972 20.2L3.00944 19.5833ZM4.05051 22.653C5.03304 23.5809 6.25783 23.6618 7.10386 23.5336L6.33611 18.4664C6.41214 18.4549 7.00693 18.3958 7.56946 18.927L4.05051 22.653ZM7.15143 23.5259L10.9081 22.8843L10.0452 17.8324L6.28854 18.4741L7.15143 23.5259ZM10.912 22.8836C11.4728 22.7869 11.9774 22.553 12.2958 22.3817C12.6157 22.2096 13.0805 21.9215 13.4639 21.5189L9.75271 17.9844C9.80605 17.9284 9.8477 17.8924 9.86806 17.8755C9.88995 17.8573 9.90311 17.848 9.9052 17.8465C9.90759 17.8448 9.89373 17.8544 9.86791 17.8683C9.84198 17.8823 9.82739 17.888 9.83199 17.8862C9.83535 17.8849 9.85174 17.8785 9.88067 17.8699C9.90775 17.8618 9.96281 17.8466 10.0413 17.8331L10.912 22.8836ZM13.471 21.5115L23.0493 11.3731L19.324 7.85356L9.74564 17.9919L13.471 21.5115ZM23.0543 11.3678C23.8542 10.5163 24.9034 9.20633 25.0089 7.46086C25.1229 5.57429 24.1142 4.03232 22.801 2.79885L19.2923 6.53451C19.6813 6.89984 19.8335 7.13384 19.8855 7.23457C19.9236 7.3084 19.8864 7.26417 19.8932 7.15167C19.8989 7.0579 19.9277 7.05863 19.8521 7.18973C19.7694 7.33307 19.6104 7.54861 19.319 7.85887L23.0543 11.3678ZM22.8237 2.82044C21.6567 1.69726 20.246 0.832517 18.585 0.832517V5.95752C18.3707 5.95752 18.5699 5.83944 19.2696 6.51293L22.8237 2.82044Z" fill="#0D1112" fill-opacity="0.61" mask="url(#path-1-inside-1_408_698)"/>
<mask id="path-3-inside-2_408_698" fill="white">
<path d="M20.2302 12.775C20.2069 12.775 20.1719 12.775 20.1485 12.775C16.5085 12.4134 13.5802 9.64836 13.0202 6.03169C12.9502 5.55336 13.2768 5.11003 13.7552 5.02836C14.2335 4.95836 14.6768 5.28503 14.7585 5.76336C15.2018 8.58669 17.4885 10.7567 20.3352 11.0367C20.8135 11.0834 21.1635 11.515 21.1169 11.9934C21.0585 12.4367 20.6735 12.775 20.2302 12.775Z"/>
</mask>
<path d="M20.2302 12.775C20.2069 12.775 20.1719 12.775 20.1485 12.775C16.5085 12.4134 13.5802 9.64836 13.0202 6.03169C12.9502 5.55336 13.2768 5.11003 13.7552 5.02836C14.2335 4.95836 14.6768 5.28503 14.7585 5.76336C15.2018 8.58669 17.4885 10.7567 20.3352 11.0367C20.8135 11.0834 21.1635 11.515 21.1169 11.9934C21.0585 12.4367 20.6735 12.775 20.2302 12.775Z" fill="#0D1112" fill-opacity="0.61"/>
<path d="M20.1485 12.775L19.8952 15.325L20.0215 15.3375H20.1485V12.775ZM13.0202 6.03169L10.4847 6.40274L10.4862 6.41328L10.4879 6.4238L13.0202 6.03169ZM13.7552 5.02836L13.3841 2.49287L13.354 2.49728L13.3239 2.50241L13.7552 5.02836ZM14.7585 5.76336L17.29 5.36586L17.2873 5.34896L17.2845 5.3321L14.7585 5.76336ZM20.3352 11.0367L20.0843 13.5869L20.0864 13.5871L20.3352 11.0367ZM21.1169 11.9934L23.6575 12.3277L23.6631 12.285L23.6672 12.2422L21.1169 11.9934ZM20.2302 10.2125C20.2301 10.2125 20.2301 10.2125 20.23 10.2125C20.23 10.2125 20.23 10.2125 20.2299 10.2125C20.2299 10.2125 20.2298 10.2125 20.2298 10.2125C20.2297 10.2125 20.2297 10.2125 20.2296 10.2125C20.2296 10.2125 20.2295 10.2125 20.2295 10.2125C20.2295 10.2125 20.2294 10.2125 20.2294 10.2125C20.2293 10.2125 20.2293 10.2125 20.2292 10.2125C20.2292 10.2125 20.2291 10.2125 20.2291 10.2125C20.229 10.2125 20.229 10.2125 20.2289 10.2125C20.2289 10.2125 20.2288 10.2125 20.2288 10.2125C20.2288 10.2125 20.2287 10.2125 20.2287 10.2125C20.2286 10.2125 20.2286 10.2125 20.2285 10.2125C20.2285 10.2125 20.2284 10.2125 20.2284 10.2125C20.2283 10.2125 20.2283 10.2125 20.2282 10.2125C20.2282 10.2125 20.2282 10.2125 20.2281 10.2125C20.2281 10.2125 20.228 10.2125 20.228 10.2125C20.2279 10.2125 20.2279 10.2125 20.2278 10.2125C20.2278 10.2125 20.2277 10.2125 20.2277 10.2125C20.2276 10.2125 20.2276 10.2125 20.2275 10.2125C20.2275 10.2125 20.2274 10.2125 20.2274 10.2125C20.2274 10.2125 20.2273 10.2125 20.2273 10.2125C20.2272 10.2125 20.2272 10.2125 20.2271 10.2125C20.2271 10.2125 20.227 10.2125 20.227 10.2125C20.2269 10.2125 20.2269 10.2125 20.2268 10.2125C20.2268 10.2125 20.2267 10.2125 20.2267 10.2125C20.2266 10.2125 20.2266 10.2125 20.2265 10.2125C20.2265 10.2125 20.2264 10.2125 20.2264 10.2125C20.2264 10.2125 20.2263 10.2125 20.2263 10.2125C20.2262 10.2125 20.2262 10.2125 20.2261 10.2125C20.2261 10.2125 20.226 10.2125 20.226 10.2125C20.2259 10.2125 20.2259 10.2125 20.2258 10.2125C20.2258 10.2125 20.2257 10.2125 20.2257 10.2125C20.2256 10.2125 20.2256 10.2125 20.2255 10.2125C20.2255 10.2125 20.2254 10.2125 20.2254 10.2125C20.2253 10.2125 20.2253 10.2125 20.2252 10.2125C20.2252 10.2125 20.2251 10.2125 20.2251 10.2125C20.225 10.2125 20.225 10.2125 20.225 10.2125C20.2249 10.2125 20.2249 10.2125 20.2248 10.2125C20.2248 10.2125 20.2247 10.2125 20.2247 10.2125C20.2246 10.2125 20.2246 10.2125 20.2245 10.2125C20.2245 10.2125 20.2244 10.2125 20.2244 10.2125C20.2243 10.2125 20.2243 10.2125 20.2242 10.2125C20.2242 10.2125 20.2241 10.2125 20.2241 10.2125C20.224 10.2125 20.224 10.2125 20.2239 10.2125C20.2239 10.2125 20.2238 10.2125 20.2238 10.2125C20.2237 10.2125 20.2237 10.2125 20.2236 10.2125C20.2236 10.2125 20.2235 10.2125 20.2235 10.2125C20.2234 10.2125 20.2234 10.2125 20.2233 10.2125C20.2233 10.2125 20.2232 10.2125 20.2232 10.2125C20.2231 10.2125 20.2231 10.2125 20.223 10.2125C20.223 10.2125 20.2229 10.2125 20.2229 10.2125C20.2228 10.2125 20.2228 10.2125 20.2227 10.2125C20.2227 10.2125 20.2226 10.2125 20.2226 10.2125C20.2225 10.2125 20.2225 10.2125 20.2224 10.2125C20.2224 10.2125 20.2223 10.2125 20.2223 10.2125C20.2222 10.2125 20.2222 10.2125 20.2221 10.2125C20.2221 10.2125 20.222 10.2125 20.222 10.2125C20.2219 10.2125 20.2219 10.2125 20.2218 10.2125C20.2218 10.2125 20.2217 10.2125 20.2217 10.2125C20.2216 10.2125 20.2216 10.2125 20.2215 10.2125C20.2215 10.2125 20.2214 10.2125 20.2214 10.2125C20.2213 10.2125 20.2213 10.2125 20.2212 10.2125C20.2212 10.2125 20.2211 10.2125 20.2211 10.2125C20.221 10.2125 20.221 10.2125 20.2209 10.2125C20.2209 10.2125 20.2208 10.2125 20.2208 10.2125C20.2207 10.2125 20.2207 10.2125 20.2206 10.2125C20.2206 10.2125 20.2205 10.2125 20.2205 10.2125C20.2204 10.2125 20.2204 10.2125 20.2203 10.2125C20.2203 10.2125 20.2202 10.2125 20.2202 10.2125C20.2201 10.2125 20.2201 10.2125 20.22 10.2125C20.22 10.2125 20.2199 10.2125 20.2199 10.2125C20.2198 10.2125 20.2198 10.2125 20.2197 10.2125C20.2197 10.2125 20.2196 10.2125 20.2196 10.2125C20.2195 10.2125 20.2195 10.2125 20.2194 10.2125C20.2194 10.2125 20.2193 10.2125 20.2193 10.2125C20.2192 10.2125 20.2191 10.2125 20.2191 10.2125C20.219 10.2125 20.219 10.2125 20.2189 10.2125C20.2189 10.2125 20.2188 10.2125 20.2188 10.2125C20.2187 10.2125 20.2187 10.2125 20.2186 10.2125C20.2186 10.2125 20.2185 10.2125 20.2185 10.2125C20.2184 10.2125 20.2184 10.2125 20.2183 10.2125C20.2183 10.2125 20.2182 10.2125 20.2182 10.2125C20.2181 10.2125 20.2181 10.2125 20.218 10.2125C20.218 10.2125 20.2179 10.2125 20.2179 10.2125C20.2178 10.2125 20.2178 10.2125 20.2177 10.2125C20.2177 10.2125 20.2176 10.2125 20.2175 10.2125C20.2175 10.2125 20.2174 10.2125 20.2174 10.2125C20.2173 10.2125 20.2173 10.2125 20.2172 10.2125C20.2172 10.2125 20.2171 10.2125 20.2171 10.2125C20.217 10.2125 20.217 10.2125 20.2169 10.2125C20.2169 10.2125 20.2168 10.2125 20.2168 10.2125C20.2167 10.2125 20.2167 10.2125 20.2166 10.2125C20.2166 10.2125 20.2165 10.2125 20.2165 10.2125C20.2164 10.2125 20.2163 10.2125 20.2163 10.2125C20.2162 10.2125 20.2162 10.2125 20.2161 10.2125C20.2161 10.2125 20.216 10.2125 20.216 10.2125C20.2159 10.2125 20.2159 10.2125 20.2158 10.2125C20.2158 10.2125 20.2157 10.2125 20.2157 10.2125C20.2156 10.2125 20.2156 10.2125 20.2155 10.2125C20.2155 10.2125 20.2154 10.2125 20.2154 10.2125C20.2153 10.2125 20.2152 10.2125 20.2152 10.2125C20.2151 10.2125 20.2151 10.2125 20.215 10.2125C20.215 10.2125 20.2149 10.2125 20.2149 10.2125C20.2148 10.2125 20.2148 10.2125 20.2147 10.2125C20.2147 10.2125 20.2146 10.2125 20.2146 10.2125C20.2145 10.2125 20.2145 10.2125 20.2144 10.2125C20.2143 10.2125 20.2143 10.2125 20.2142 10.2125C20.2142 10.2125 20.2141 10.2125 20.2141 10.2125C20.214 10.2125 20.214 10.2125 20.2139 10.2125C20.2139 10.2125 20.2138 10.2125 20.2138 10.2125C20.2137 10.2125 20.2137 10.2125 20.2136 10.2125C20.2135 10.2125 20.2135 10.2125 20.2134 10.2125C20.2134 10.2125 20.2133 10.2125 20.2133 10.2125C20.2132 10.2125 20.2132 10.2125 20.2131 10.2125C20.2131 10.2125 20.213 10.2125 20.213 10.2125C20.2129 10.2125 20.2129 10.2125 20.2128 10.2125C20.2127 10.2125 20.2127 10.2125 20.2126 10.2125C20.2126 10.2125 20.2125 10.2125 20.2125 10.2125C20.2124 10.2125 20.2124 10.2125 20.2123 10.2125C20.2123 10.2125 20.2122 10.2125 20.2122 10.2125C20.2121 10.2125 20.212 10.2125 20.212 10.2125C20.2119 10.2125 20.2119 10.2125 20.2118 10.2125C20.2118 10.2125 20.2117 10.2125 20.2117 10.2125C20.2116 10.2125 20.2116 10.2125 20.2115 10.2125C20.2115 10.2125 20.2114 10.2125 20.2113 10.2125C20.2113 10.2125 20.2112 10.2125 20.2112 10.2125C20.2111 10.2125 20.2111 10.2125 20.211 10.2125C20.211 10.2125 20.2109 10.2125 20.2109 10.2125C20.2108 10.2125 20.2108 10.2125 20.2107 10.2125C20.2106 10.2125 20.2106 10.2125 20.2105 10.2125C20.2105 10.2125 20.2104 10.2125 20.2104 10.2125C20.2103 10.2125 20.2103 10.2125 20.2102 10.2125C20.2102 10.2125 20.2101 10.2125 20.21 10.2125C20.21 10.2125 20.2099 10.2125 20.2099 10.2125C20.2098 10.2125 20.2098 10.2125 20.2097 10.2125C20.2097 10.2125 20.2096 10.2125 20.2096 10.2125C20.2095 10.2125 20.2094 10.2125 20.2094 10.2125C20.2093 10.2125 20.2093 10.2125 20.2092 10.2125C20.2092 10.2125 20.2091 10.2125 20.2091 10.2125C20.209 10.2125 20.209 10.2125 20.2089 10.2125C20.2088 10.2125 20.2088 10.2125 20.2087 10.2125C20.2087 10.2125 20.2086 10.2125 20.2086 10.2125C20.2085 10.2125 20.2085 10.2125 20.2084 10.2125C20.2084 10.2125 20.2083 10.2125 20.2082 10.2125C20.2082 10.2125 20.2081 10.2125 20.2081 10.2125C20.208 10.2125 20.208 10.2125 20.2079 10.2125C20.2079 10.2125 20.2078 10.2125 20.2078 10.2125C20.2077 10.2125 20.2076 10.2125 20.2076 10.2125C20.2075 10.2125 20.2075 10.2125 20.2074 10.2125C20.2074 10.2125 20.2073 10.2125 20.2073 10.2125C20.2072 10.2125 20.2071 10.2125 20.2071 10.2125C20.207 10.2125 20.207 10.2125 20.2069 10.2125C20.2069 10.2125 20.2068 10.2125 20.2068 10.2125C20.2067 10.2125 20.2067 10.2125 20.2066 10.2125C20.2065 10.2125 20.2065 10.2125 20.2064 10.2125C20.2064 10.2125 20.2063 10.2125 20.2063 10.2125C20.2062 10.2125 20.2062 10.2125 20.2061 10.2125C20.206 10.2125 20.206 10.2125 20.2059 10.2125C20.2059 10.2125 20.2058 10.2125 20.2058 10.2125C20.2057 10.2125 20.2057 10.2125 20.2056 10.2125C20.2055 10.2125 20.2055 10.2125 20.2054 10.2125C20.2054 10.2125 20.2053 10.2125 20.2053 10.2125C20.2052 10.2125 20.2052 10.2125 20.2051 10.2125C20.205 10.2125 20.205 10.2125 20.2049 10.2125C20.2049 10.2125 20.2048 10.2125 20.2048 10.2125C20.2047 10.2125 20.2047 10.2125 20.2046 10.2125C20.2045 10.2125 20.2045 10.2125 20.2044 10.2125C20.2044 10.2125 20.2043 10.2125 20.2043 10.2125C20.2042 10.2125 20.2042 10.2125 20.2041 10.2125C20.204 10.2125 20.204 10.2125 20.2039 10.2125C20.2039 10.2125 20.2038 10.2125 20.2038 10.2125C20.2037 10.2125 20.2037 10.2125 20.2036 10.2125C20.2035 10.2125 20.2035 10.2125 20.2034 10.2125C20.2034 10.2125 20.2033 10.2125 20.2033 10.2125C20.2032 10.2125 20.2032 10.2125 20.2031 10.2125C20.203 10.2125 20.203 10.2125 20.2029 10.2125C20.2029 10.2125 20.2028 10.2125 20.2028 10.2125C20.2027 10.2125 20.2027 10.2125 20.2026 10.2125C20.2025 10.2125 20.2025 10.2125 20.2024 10.2125C20.2024 10.2125 20.2023 10.2125 20.2023 10.2125C20.2022 10.2125 20.2022 10.2125 20.2021 10.2125C20.202 10.2125 20.202 10.2125 20.2019 10.2125C20.2019 10.2125 20.2018 10.2125 20.2018 10.2125C20.2017 10.2125 20.2016 10.2125 20.2016 10.2125C20.2015 10.2125 20.2015 10.2125 20.2014 10.2125C20.2014 10.2125 20.2013 10.2125 20.2013 10.2125C20.2012 10.2125 20.2011 10.2125 20.2011 10.2125C20.201 10.2125 20.201 10.2125 20.2009 10.2125C20.2009 10.2125 20.2008 10.2125 20.2007 10.2125C20.2007 10.2125 20.2006 10.2125 20.2006 10.2125C20.2005 10.2125 20.2005 10.2125 20.2004 10.2125C20.2004 10.2125 20.2003 10.2125 20.2002 10.2125C20.2002 10.2125 20.2001 10.2125 20.2001 10.2125C20.2 10.2125 20.2 10.2125 20.1999 10.2125C20.1998 10.2125 20.1998 10.2125 20.1997 10.2125C20.1997 10.2125 20.1996 10.2125 20.1996 10.2125C20.1995 10.2125 20.1995 10.2125 20.1994 10.2125C20.1993 10.2125 20.1993 10.2125 20.1992 10.2125C20.1992 10.2125 20.1991 10.2125 20.1991 10.2125C20.199 10.2125 20.1989 10.2125 20.1989 10.2125C20.1988 10.2125 20.1988 10.2125 20.1987 10.2125C20.1987 10.2125 20.1986 10.2125 20.1986 10.2125C20.1985 10.2125 20.1984 10.2125 20.1984 10.2125C20.1983 10.2125 20.1983 10.2125 20.1982 10.2125C20.1982 10.2125 20.1981 10.2125 20.198 10.2125C20.198 10.2125 20.1979 10.2125 20.1979 10.2125C20.1978 10.2125 20.1978 10.2125 20.1977 10.2125C20.1976 10.2125 20.1976 10.2125 20.1975 10.2125C20.1975 10.2125 20.1974 10.2125 20.1974 10.2125C20.1973 10.2125 20.1973 10.2125 20.1972 10.2125C20.1971 10.2125 20.1971 10.2125 20.197 10.2125C20.197 10.2125 20.1969 10.2125 20.1969 10.2125C20.1968 10.2125 20.1967 10.2125 20.1967 10.2125C20.1966 10.2125 20.1966 10.2125 20.1965 10.2125C20.1965 10.2125 20.1964 10.2125 20.1963 10.2125C20.1963 10.2125 20.1962 10.2125 20.1962 10.2125C20.1961 10.2125 20.1961 10.2125 20.196 10.2125C20.1959 10.2125 20.1959 10.2125 20.1958 10.2125C20.1958 10.2125 20.1957 10.2125 20.1957 10.2125C20.1956 10.2125 20.1956 10.2125 20.1955 10.2125C20.1954 10.2125 20.1954 10.2125 20.1953 10.2125C20.1953 10.2125 20.1952 10.2125 20.1952 10.2125C20.1951 10.2125 20.195 10.2125 20.195 10.2125C20.1949 10.2125 20.1949 10.2125 20.1948 10.2125C20.1948 10.2125 20.1947 10.2125 20.1946 10.2125C20.1946 10.2125 20.1945 10.2125 20.1945 10.2125C20.1944 10.2125 20.1944 10.2125 20.1943 10.2125C20.1942 10.2125 20.1942 10.2125 20.1941 10.2125C20.1941 10.2125 20.194 10.2125 20.194 10.2125C20.1939 10.2125 20.1938 10.2125 20.1938 10.2125C20.1937 10.2125 20.1937 10.2125 20.1936 10.2125C20.1936 10.2125 20.1935 10.2125 20.1934 10.2125C20.1934 10.2125 20.1933 10.2125 20.1933 10.2125C20.1932 10.2125 20.1932 10.2125 20.1931 10.2125C20.1931 10.2125 20.193 10.2125 20.1929 10.2125C20.1929 10.2125 20.1928 10.2125 20.1928 10.2125C20.1927 10.2125 20.1927 10.2125 20.1926 10.2125C20.1925 10.2125 20.1925 10.2125 20.1924 10.2125C20.1924 10.2125 20.1923 10.2125 20.1923 10.2125C20.1922 10.2125 20.1921 10.2125 20.1921 10.2125C20.192 10.2125 20.192 10.2125 20.1919 10.2125C20.1919 10.2125 20.1918 10.2125 20.1917 10.2125C20.1917 10.2125 20.1916 10.2125 20.1916 10.2125C20.1915 10.2125 20.1915 10.2125 20.1914 10.2125C20.1913 10.2125 20.1913 10.2125 20.1912 10.2125C20.1912 10.2125 20.1911 10.2125 20.1911 10.2125C20.191 10.2125 20.1909 10.2125 20.1909 10.2125C20.1908 10.2125 20.1908 10.2125 20.1907 10.2125C20.1907 10.2125 20.1906 10.2125 20.1905 10.2125C20.1905 10.2125 20.1904 10.2125 20.1904 10.2125C20.1903 10.2125 20.1903 10.2125 20.1902 10.2125C20.1901 10.2125 20.1901 10.2125 20.19 10.2125C20.19 10.2125 20.1899 10.2125 20.1899 10.2125C20.1898 10.2125 20.1897 10.2125 20.1897 10.2125C20.1896 10.2125 20.1896 10.2125 20.1895 10.2125C20.1895 10.2125 20.1894 10.2125 20.1894 10.2125C20.1893 10.2125 20.1892 10.2125 20.1892 10.2125C20.1891 10.2125 20.1891 10.2125 20.189 10.2125C20.189 10.2125 20.1889 10.2125 20.1888 10.2125C20.1888 10.2125 20.1887 10.2125 20.1887 10.2125C20.1886 10.2125 20.1886 10.2125 20.1885 10.2125C20.1884 10.2125 20.1884 10.2125 20.1883 10.2125C20.1883 10.2125 20.1882 10.2125 20.1882 10.2125C20.1881 10.2125 20.188 10.2125 20.188 10.2125C20.1879 10.2125 20.1879 10.2125 20.1878 10.2125C20.1878 10.2125 20.1877 10.2125 20.1876 10.2125C20.1876 10.2125 20.1875 10.2125 20.1875 10.2125C20.1874 10.2125 20.1874 10.2125 20.1873 10.2125C20.1872 10.2125 20.1872 10.2125 20.1871 10.2125C20.1871 10.2125 20.187 10.2125 20.187 10.2125C20.1869 10.2125 20.1868 10.2125 20.1868 10.2125C20.1867 10.2125 20.1867 10.2125 20.1866 10.2125C20.1866 10.2125 20.1865 10.2125 20.1864 10.2125C20.1864 10.2125 20.1863 10.2125 20.1863 10.2125C20.1862 10.2125 20.1862 10.2125 20.1861 10.2125C20.186 10.2125 20.186 10.2125 20.1859 10.2125C20.1859 10.2125 20.1858 10.2125 20.1858 10.2125C20.1857 10.2125 20.1856 10.2125 20.1856 10.2125C20.1855 10.2125 20.1855 10.2125 20.1854 10.2125C20.1854 10.2125 20.1853 10.2125 20.1853 10.2125C20.1852 10.2125 20.1851 10.2125 20.1851 10.2125C20.185 10.2125 20.185 10.2125 20.1849 10.2125C20.1849 10.2125 20.1848 10.2125 20.1847 10.2125C20.1847 10.2125 20.1846 10.2125 20.1846 10.2125C20.1845 10.2125 20.1845 10.2125 20.1844 10.2125C20.1843 10.2125 20.1843 10.2125 20.1842 10.2125C20.1842 10.2125 20.1841 10.2125 20.1841 10.2125C20.184 10.2125 20.1839 10.2125 20.1839 10.2125C20.1838 10.2125 20.1838 10.2125 20.1837 10.2125C20.1837 10.2125 20.1836 10.2125 20.1835 10.2125C20.1835 10.2125 20.1834 10.2125 20.1834 10.2125C20.1833 10.2125 20.1833 10.2125 20.1832 10.2125C20.1831 10.2125 20.1831 10.2125 20.183 10.2125C20.183 10.2125 20.1829 10.2125 20.1829 10.2125C20.1828 10.2125 20.1828 10.2125 20.1827 10.2125C20.1826 10.2125 20.1826 10.2125 20.1825 10.2125C20.1825 10.2125 20.1824 10.2125 20.1824 10.2125C20.1823 10.2125 20.1822 10.2125 20.1822 10.2125C20.1821 10.2125 20.1821 10.2125 20.182 10.2125C20.182 10.2125 20.1819 10.2125 20.1818 10.2125C20.1818 10.2125 20.1817 10.2125 20.1817 10.2125C20.1816 10.2125 20.1816 10.2125 20.1815 10.2125C20.1814 10.2125 20.1814 10.2125 20.1813 10.2125C20.1813 10.2125 20.1812 10.2125 20.1812 10.2125C20.1811 10.2125 20.1811 10.2125 20.181 10.2125C20.1809 10.2125 20.1809 10.2125 20.1808 10.2125C20.1808 10.2125 20.1807 10.2125 20.1807 10.2125C20.1806 10.2125 20.1805 10.2125 20.1805 10.2125C20.1804 10.2125 20.1804 10.2125 20.1803 10.2125C20.1803 10.2125 20.1802 10.2125 20.1801 10.2125C20.1801 10.2125 20.18 10.2125 20.18 10.2125C20.1799 10.2125 20.1799 10.2125 20.1798 10.2125C20.1798 10.2125 20.1797 10.2125 20.1796 10.2125C20.1796 10.2125 20.1795 10.2125 20.1795 10.2125C20.1794 10.2125 20.1794 10.2125 20.1793 10.2125C20.1792 10.2125 20.1792 10.2125 20.1791 10.2125C20.1791 10.2125 20.179 10.2125 20.179 10.2125C20.1789 10.2125 20.1789 10.2125 20.1788 10.2125C20.1787 10.2125 20.1787 10.2125 20.1786 10.2125C20.1786 10.2125 20.1785 10.2125 20.1785 10.2125C20.1784 10.2125 20.1783 10.2125 20.1783 10.2125C20.1782 10.2125 20.1782 10.2125 20.1781 10.2125C20.1781 10.2125 20.178 10.2125 20.178 10.2125C20.1779 10.2125 20.1778 10.2125 20.1778 10.2125C20.1777 10.2125 20.1777 10.2125 20.1776 10.2125C20.1776 10.2125 20.1775 10.2125 20.1774 10.2125C20.1774 10.2125 20.1773 10.2125 20.1773 10.2125C20.1772 10.2125 20.1772 10.2125 20.1771 10.2125C20.1771 10.2125 20.177 10.2125 20.1769 10.2125C20.1769 10.2125 20.1768 10.2125 20.1768 10.2125C20.1767 10.2125 20.1767 10.2125 20.1766 10.2125C20.1766 10.2125 20.1765 10.2125 20.1764 10.2125C20.1764 10.2125 20.1763 10.2125 20.1763 10.2125C20.1762 10.2125 20.1762 10.2125 20.1761 10.2125C20.176 10.2125 20.176 10.2125 20.1759 10.2125C20.1759 10.2125 20.1758 10.2125 20.1758 10.2125C20.1757 10.2125 20.1757 10.2125 20.1756 10.2125C20.1755 10.2125 20.1755 10.2125 20.1754 10.2125C20.1754 10.2125 20.1753 10.2125 20.1753 10.2125C20.1752 10.2125 20.1752 10.2125 20.1751 10.2125C20.175 10.2125 20.175 10.2125 20.1749 10.2125C20.1749 10.2125 20.1748 10.2125 20.1748 10.2125C20.1747 10.2125 20.1747 10.2125 20.1746 10.2125C20.1745 10.2125 20.1745 10.2125 20.1744 10.2125C20.1744 10.2125 20.1743 10.2125 20.1743 10.2125C20.1742 10.2125 20.1742 10.2125 20.1741 10.2125C20.174 10.2125 20.174 10.2125 20.1739 10.2125C20.1739 10.2125 20.1738 10.2125 20.1738 10.2125C20.1737 10.2125 20.1737 10.2125 20.1736 10.2125C20.1735 10.2125 20.1735 10.2125 20.1734 10.2125C20.1734 10.2125 20.1733 10.2125 20.1733 10.2125C20.1732 10.2125 20.1732 10.2125 20.1731 10.2125C20.173 10.2125 20.173 10.2125 20.1729 10.2125C20.1729 10.2125 20.1728 10.2125 20.1728 10.2125C20.1727 10.2125 20.1727 10.2125 20.1726 10.2125C20.1725 10.2125 20.1725 10.2125 20.1724 10.2125C20.1724 10.2125 20.1723 10.2125 20.1723 10.2125C20.1722 10.2125 20.1722 10.2125 20.1721 10.2125C20.172 10.2125 20.172 10.2125 20.1719 10.2125C20.1719 10.2125 20.1718 10.2125 20.1718 10.2125C20.1717 10.2125 20.1717 10.2125 20.1716 10.2125C20.1716 10.2125 20.1715 10.2125 20.1714 10.2125C20.1714 10.2125 20.1713 10.2125 20.1713 10.2125C20.1712 10.2125 20.1712 10.2125 20.1711 10.2125C20.1711 10.2125 20.171 10.2125 20.1709 10.2125C20.1709 10.2125 20.1708 10.2125 20.1708 10.2125C20.1707 10.2125 20.1707 10.2125 20.1706 10.2125C20.1706 10.2125 20.1705 10.2125 20.1705 10.2125C20.1704 10.2125 20.1703 10.2125 20.1703 10.2125C20.1702 10.2125 20.1702 10.2125 20.1701 10.2125C20.1701 10.2125 20.17 10.2125 20.17 10.2125C20.1699 10.2125 20.1699 10.2125 20.1698 10.2125C20.1697 10.2125 20.1697 10.2125 20.1696 10.2125C20.1696 10.2125 20.1695 10.2125 20.1695 10.2125C20.1694 10.2125 20.1694 10.2125 20.1693 10.2125C20.1693 10.2125 20.1692 10.2125 20.1691 10.2125C20.1691 10.2125 20.169 10.2125 20.169 10.2125C20.1689 10.2125 20.1689 10.2125 20.1688 10.2125C20.1688 10.2125 20.1687 10.2125 20.1687 10.2125C20.1686 10.2125 20.1685 10.2125 20.1685 10.2125C20.1684 10.2125 20.1684 10.2125 20.1683 10.2125C20.1683 10.2125 20.1682 10.2125 20.1682 10.2125C20.1681 10.2125 20.1681 10.2125 20.168 10.2125C20.1679 10.2125 20.1679 10.2125 20.1678 10.2125C20.1678 10.2125 20.1677 10.2125 20.1677 10.2125C20.1676 10.2125 20.1676 10.2125 20.1675 10.2125C20.1675 10.2125 20.1674 10.2125 20.1674 10.2125C20.1673 10.2125 20.1672 10.2125 20.1672 10.2125C20.1671 10.2125 20.1671 10.2125 20.167 10.2125C20.167 10.2125 20.1669 10.2125 20.1669 10.2125C20.1668 10.2125 20.1668 10.2125 20.1667 10.2125C20.1667 10.2125 20.1666 10.2125 20.1665 10.2125C20.1665 10.2125 20.1664 10.2125 20.1664 10.2125C20.1663 10.2125 20.1663 10.2125 20.1662 10.2125C20.1662 10.2125 20.1661 10.2125 20.1661 10.2125C20.166 10.2125 20.166 10.2125 20.1659 10.2125C20.1658 10.2125 20.1658 10.2125 20.1657 10.2125C20.1657 10.2125 20.1656 10.2125 20.1656 10.2125C20.1655 10.2125 20.1655 10.2125 20.1654 10.2125C20.1654 10.2125 20.1653 10.2125 20.1653 10.2125C20.1652 10.2125 20.1652 10.2125 20.1651 10.2125C20.165 10.2125 20.165 10.2125 20.1649 10.2125C20.1649 10.2125 20.1648 10.2125 20.1648 10.2125C20.1647 10.2125 20.1647 10.2125 20.1646 10.2125C20.1646 10.2125 20.1645 10.2125 20.1645 10.2125C20.1644 10.2125 20.1644 10.2125 20.1643 10.2125C20.1642 10.2125 20.1642 10.2125 20.1641 10.2125C20.1641 10.2125 20.164 10.2125 20.164 10.2125C20.1639 10.2125 20.1639 10.2125 20.1638 10.2125C20.1638 10.2125 20.1637 10.2125 20.1637 10.2125C20.1636 10.2125 20.1636 10.2125 20.1635 10.2125C20.1635 10.2125 20.1634 10.2125 20.1634 10.2125C20.1633 10.2125 20.1632 10.2125 20.1632 10.2125C20.1631 10.2125 20.1631 10.2125 20.163 10.2125C20.163 10.2125 20.1629 10.2125 20.1629 10.2125C20.1628 10.2125 20.1628 10.2125 20.1627 10.2125C20.1627 10.2125 20.1626 10.2125 20.1626 10.2125C20.1625 10.2125 20.1625 10.2125 20.1624 10.2125C20.1624 10.2125 20.1623 10.2125 20.1622 10.2125C20.1622 10.2125 20.1621 10.2125 20.1621 10.2125C20.162 10.2125 20.162 10.2125 20.1619 10.2125C20.1619 10.2125 20.1618 10.2125 20.1618 10.2125C20.1617 10.2125 20.1617 10.2125 20.1616 10.2125C20.1616 10.2125 20.1615 10.2125 20.1615 10.2125C20.1614 10.2125 20.1614 10.2125 20.1613 10.2125C20.1613 10.2125 20.1612 10.2125 20.1612 10.2125C20.1611 10.2125 20.161 10.2125 20.161 10.2125C20.1609 10.2125 20.1609 10.2125 20.1608 10.2125C20.1608 10.2125 20.1607 10.2125 20.1607 10.2125C20.1606 10.2125 20.1606 10.2125 20.1605 10.2125C20.1605 10.2125 20.1604 10.2125 20.1604 10.2125C20.1603 10.2125 20.1603 10.2125 20.1602 10.2125C20.1602 10.2125 20.1601 10.2125 20.1601 10.2125C20.16 10.2125 20.16 10.2125 20.1599 10.2125C20.1599 10.2125 20.1598 10.2125 20.1598 10.2125C20.1597 10.2125 20.1597 10.2125 20.1596 10.2125C20.1596 10.2125 20.1595 10.2125 20.1594 10.2125C20.1594 10.2125 20.1593 10.2125 20.1593 10.2125C20.1592 10.2125 20.1592 10.2125 20.1591 10.2125C20.1591 10.2125 20.159 10.2125 20.159 10.2125C20.1589 10.2125 20.1589 10.2125 20.1588 10.2125C20.1588 10.2125 20.1587 10.2125 20.1587 10.2125C20.1586 10.2125 20.1586 10.2125 20.1585 10.2125C20.1585 10.2125 20.1584 10.2125 20.1584 10.2125C20.1583 10.2125 20.1583 10.2125 20.1582 10.2125C20.1582 10.2125 20.1581 10.2125 20.1581 10.2125C20.158 10.2125 20.158 10.2125 20.1579 10.2125C20.1579 10.2125 20.1578 10.2125 20.1578 10.2125C20.1577 10.2125 20.1577 10.2125 20.1576 10.2125C20.1576 10.2125 20.1575 10.2125 20.1575 10.2125C20.1574 10.2125 20.1574 10.2125 20.1573 10.2125C20.1573 10.2125 20.1572 10.2125 20.1572 10.2125C20.1571 10.2125 20.1571 10.2125 20.157 10.2125C20.157 10.2125 20.1569 10.2125 20.1569 10.2125C20.1568 10.2125 20.1568 10.2125 20.1567 10.2125C20.1567 10.2125 20.1566 10.2125 20.1566 10.2125C20.1565 10.2125 20.1565 10.2125 20.1564 10.2125C20.1564 10.2125 20.1563 10.2125 20.1563 10.2125C20.1562 10.2125 20.1562 10.2125 20.1561 10.2125C20.1561 10.2125 20.156 10.2125 20.156 10.2125C20.1559 10.2125 20.1559 10.2125 20.1558 10.2125C20.1558 10.2125 20.1557 10.2125 20.1557 10.2125C20.1556 10.2125 20.1556 10.2125 20.1555 10.2125C20.1555 10.2125 20.1554 10.2125 20.1554 10.2125C20.1553 10.2125 20.1553 10.2125 20.1552 10.2125C20.1552 10.2125 20.1551 10.2125 20.1551 10.2125C20.155 10.2125 20.155 10.2125 20.1549 10.2125C20.1549 10.2125 20.1548 10.2125 20.1548 10.2125C20.1547 10.2125 20.1547 10.2125 20.1546 10.2125C20.1546 10.2125 20.1545 10.2125 20.1545 10.2125C20.1544 10.2125 20.1544 10.2125 20.1543 10.2125C20.1543 10.2125 20.1542 10.2125 20.1542 10.2125C20.1541 10.2125 20.1541 10.2125 20.154 10.2125C20.154 10.2125 20.1539 10.2125 20.1539 10.2125C20.1538 10.2125 20.1538 10.2125 20.1537 10.2125C20.1537 10.2125 20.1537 10.2125 20.1536 10.2125C20.1536 10.2125 20.1535 10.2125 20.1535 10.2125C20.1534 10.2125 20.1534 10.2125 20.1533 10.2125C20.1533 10.2125 20.1532 10.2125 20.1532 10.2125C20.1531 10.2125 20.1531 10.2125 20.153 10.2125C20.153 10.2125 20.1529 10.2125 20.1529 10.2125C20.1528 10.2125 20.1528 10.2125 20.1527 10.2125C20.1527 10.2125 20.1526 10.2125 20.1526 10.2125C20.1525 10.2125 20.1525 10.2125 20.1524 10.2125C20.1524 10.2125 20.1524 10.2125 20.1523 10.2125C20.1523 10.2125 20.1522 10.2125 20.1522 10.2125C20.1521 10.2125 20.1521 10.2125 20.152 10.2125C20.152 10.2125 20.1519 10.2125 20.1519 10.2125C20.1518 10.2125 20.1518 10.2125 20.1517 10.2125C20.1517 10.2125 20.1516 10.2125 20.1516 10.2125C20.1515 10.2125 20.1515 10.2125 20.1514 10.2125C20.1514 10.2125 20.1514 10.2125 20.1513 10.2125C20.1513 10.2125 20.1512 10.2125 20.1512 10.2125C20.1511 10.2125 20.1511 10.2125 20.151 10.2125C20.151 10.2125 20.1509 10.2125 20.1509 10.2125C20.1508 10.2125 20.1508 10.2125 20.1507 10.2125C20.1507 10.2125 20.1506 10.2125 20.1506 10.2125C20.1506 10.2125 20.1505 10.2125 20.1505 10.2125C20.1504 10.2125 20.1504 10.2125 20.1503 10.2125C20.1503 10.2125 20.1502 10.2125 20.1502 10.2125C20.1501 10.2125 20.1501 10.2125 20.15 10.2125C20.15 10.2125 20.1499 10.2125 20.1499 10.2125C20.1499 10.2125 20.1498 10.2125 20.1498 10.2125C20.1497 10.2125 20.1497 10.2125 20.1496 10.2125C20.1496 10.2125 20.1495 10.2125 20.1495 10.2125C20.1494 10.2125 20.1494 10.2125 20.1493 10.2125C20.1493 10.2125 20.1493 10.2125 20.1492 10.2125C20.1492 10.2125 20.1491 10.2125 20.1491 10.2125C20.149 10.2125 20.149 10.2125 20.1489 10.2125C20.1489 10.2125 20.1488 10.2125 20.1488 10.2125C20.1487 10.2125 20.1487 10.2125 20.1487 10.2125C20.1486 10.2125 20.1486 10.2125 20.1485 10.2125V15.3375C20.1486 15.3375 20.1486 15.3375 20.1487 15.3375C20.1487 15.3375 20.1487 15.3375 20.1488 15.3375C20.1488 15.3375 20.1489 15.3375 20.1489 15.3375C20.149 15.3375 20.149 15.3375 20.1491 15.3375C20.1491 15.3375 20.1492 15.3375 20.1492 15.3375C20.1493 15.3375 20.1493 15.3375 20.1493 15.3375C20.1494 15.3375 20.1494 15.3375 20.1495 15.3375C20.1495 15.3375 20.1496 15.3375 20.1496 15.3375C20.1497 15.3375 20.1497 15.3375 20.1498 15.3375C20.1498 15.3375 20.1499 15.3375 20.1499 15.3375C20.1499 15.3375 20.15 15.3375 20.15 15.3375C20.1501 15.3375 20.1501 15.3375 20.1502 15.3375C20.1502 15.3375 20.1503 15.3375 20.1503 15.3375C20.1504 15.3375 20.1504 15.3375 20.1505 15.3375C20.1505 15.3375 20.1506 15.3375 20.1506 15.3375C20.1506 15.3375 20.1507 15.3375 20.1507 15.3375C20.1508 15.3375 20.1508 15.3375 20.1509 15.3375C20.1509 15.3375 20.151 15.3375 20.151 15.3375C20.1511 15.3375 20.1511 15.3375 20.1512 15.3375C20.1512 15.3375 20.1513 15.3375 20.1513 15.3375C20.1514 15.3375 20.1514 15.3375 20.1514 15.3375C20.1515 15.3375 20.1515 15.3375 20.1516 15.3375C20.1516 15.3375 20.1517 15.3375 20.1517 15.3375C20.1518 15.3375 20.1518 15.3375 20.1519 15.3375C20.1519 15.3375 20.152 15.3375 20.152 15.3375C20.1521 15.3375 20.1521 15.3375 20.1522 15.3375C20.1522 15.3375 20.1523 15.3375 20.1523 15.3375C20.1524 15.3375 20.1524 15.3375 20.1524 15.3375C20.1525 15.3375 20.1525 15.3375 20.1526 15.3375C20.1526 15.3375 20.1527 15.3375 20.1527 15.3375C20.1528 15.3375 20.1528 15.3375 20.1529 15.3375C20.1529 15.3375 20.153 15.3375 20.153 15.3375C20.1531 15.3375 20.1531 15.3375 20.1532 15.3375C20.1532 15.3375 20.1533 15.3375 20.1533 15.3375C20.1534 15.3375 20.1534 15.3375 20.1535 15.3375C20.1535 15.3375 20.1536 15.3375 20.1536 15.3375C20.1537 15.3375 20.1537 15.3375 20.1537 15.3375C20.1538 15.3375 20.1538 15.3375 20.1539 15.3375C20.1539 15.3375 20.154 15.3375 20.154 15.3375C20.1541 15.3375 20.1541 15.3375 20.1542 15.3375C20.1542 15.3375 20.1543 15.3375 20.1543 15.3375C20.1544 15.3375 20.1544 15.3375 20.1545 15.3375C20.1545 15.3375 20.1546 15.3375 20.1546 15.3375C20.1547 15.3375 20.1547 15.3375 20.1548 15.3375C20.1548 15.3375 20.1549 15.3375 20.1549 15.3375C20.155 15.3375 20.155 15.3375 20.1551 15.3375C20.1551 15.3375 20.1552 15.3375 20.1552 15.3375C20.1553 15.3375 20.1553 15.3375 20.1554 15.3375C20.1554 15.3375 20.1555 15.3375 20.1555 15.3375C20.1556 15.3375 20.1556 15.3375 20.1557 15.3375C20.1557 15.3375 20.1558 15.3375 20.1558 15.3375C20.1559 15.3375 20.1559 15.3375 20.156 15.3375C20.156 15.3375 20.1561 15.3375 20.1561 15.3375C20.1562 15.3375 20.1562 15.3375 20.1563 15.3375C20.1563 15.3375 20.1564 15.3375 20.1564 15.3375C20.1565 15.3375 20.1565 15.3375 20.1566 15.3375C20.1566 15.3375 20.1567 15.3375 20.1567 15.3375C20.1568 15.3375 20.1568 15.3375 20.1569 15.3375C20.1569 15.3375 20.157 15.3375 20.157 15.3375C20.1571 15.3375 20.1571 15.3375 20.1572 15.3375C20.1572 15.3375 20.1573 15.3375 20.1573 15.3375C20.1574 15.3375 20.1574 15.3375 20.1575 15.3375C20.1575 15.3375 20.1576 15.3375 20.1576 15.3375C20.1577 15.3375 20.1577 15.3375 20.1578 15.3375C20.1578 15.3375 20.1579 15.3375 20.1579 15.3375C20.158 15.3375 20.158 15.3375 20.1581 15.3375C20.1581 15.3375 20.1582 15.3375 20.1582 15.3375C20.1583 15.3375 20.1583 15.3375 20.1584 15.3375C20.1584 15.3375 20.1585 15.3375 20.1585 15.3375C20.1586 15.3375 20.1586 15.3375 20.1587 15.3375C20.1587 15.3375 20.1588 15.3375 20.1588 15.3375C20.1589 15.3375 20.1589 15.3375 20.159 15.3375C20.159 15.3375 20.1591 15.3375 20.1591 15.3375C20.1592 15.3375 20.1592 15.3375 20.1593 15.3375C20.1593 15.3375 20.1594 15.3375 20.1594 15.3375C20.1595 15.3375 20.1596 15.3375 20.1596 15.3375C20.1597 15.3375 20.1597 15.3375 20.1598 15.3375C20.1598 15.3375 20.1599 15.3375 20.1599 15.3375C20.16 15.3375 20.16 15.3375 20.1601 15.3375C20.1601 15.3375 20.1602 15.3375 20.1602 15.3375C20.1603 15.3375 20.1603 15.3375 20.1604 15.3375C20.1604 15.3375 20.1605 15.3375 20.1605 15.3375C20.1606 15.3375 20.1606 15.3375 20.1607 15.3375C20.1607 15.3375 20.1608 15.3375 20.1608 15.3375C20.1609 15.3375 20.1609 15.3375 20.161 15.3375C20.161 15.3375 20.1611 15.3375 20.1612 15.3375C20.1612 15.3375 20.1613 15.3375 20.1613 15.3375C20.1614 15.3375 20.1614 15.3375 20.1615 15.3375C20.1615 15.3375 20.1616 15.3375 20.1616 15.3375C20.1617 15.3375 20.1617 15.3375 20.1618 15.3375C20.1618 15.3375 20.1619 15.3375 20.1619 15.3375C20.162 15.3375 20.162 15.3375 20.1621 15.3375C20.1621 15.3375 20.1622 15.3375 20.1622 15.3375C20.1623 15.3375 20.1624 15.3375 20.1624 15.3375C20.1625 15.3375 20.1625 15.3375 20.1626 15.3375C20.1626 15.3375 20.1627 15.3375 20.1627 15.3375C20.1628 15.3375 20.1628 15.3375 20.1629 15.3375C20.1629 15.3375 20.163 15.3375 20.163 15.3375C20.1631 15.3375 20.1631 15.3375 20.1632 15.3375C20.1632 15.3375 20.1633 15.3375 20.1634 15.3375C20.1634 15.3375 20.1635 15.3375 20.1635 15.3375C20.1636 15.3375 20.1636 15.3375 20.1637 15.3375C20.1637 15.3375 20.1638 15.3375 20.1638 15.3375C20.1639 15.3375 20.1639 15.3375 20.164 15.3375C20.164 15.3375 20.1641 15.3375 20.1641 15.3375C20.1642 15.3375 20.1642 15.3375 20.1643 15.3375C20.1644 15.3375 20.1644 15.3375 20.1645 15.3375C20.1645 15.3375 20.1646 15.3375 20.1646 15.3375C20.1647 15.3375 20.1647 15.3375 20.1648 15.3375C20.1648 15.3375 20.1649 15.3375 20.1649 15.3375C20.165 15.3375 20.165 15.3375 20.1651 15.3375C20.1652 15.3375 20.1652 15.3375 20.1653 15.3375C20.1653 15.3375 20.1654 15.3375 20.1654 15.3375C20.1655 15.3375 20.1655 15.3375 20.1656 15.3375C20.1656 15.3375 20.1657 15.3375 20.1657 15.3375C20.1658 15.3375 20.1658 15.3375 20.1659 15.3375C20.166 15.3375 20.166 15.3375 20.1661 15.3375C20.1661 15.3375 20.1662 15.3375 20.1662 15.3375C20.1663 15.3375 20.1663 15.3375 20.1664 15.3375C20.1664 15.3375 20.1665 15.3375 20.1665 15.3375C20.1666 15.3375 20.1667 15.3375 20.1667 15.3375C20.1668 15.3375 20.1668 15.3375 20.1669 15.3375C20.1669 15.3375 20.167 15.3375 20.167 15.3375C20.1671 15.3375 20.1671 15.3375 20.1672 15.3375C20.1672 15.3375 20.1673 15.3375 20.1674 15.3375C20.1674 15.3375 20.1675 15.3375 20.1675 15.3375C20.1676 15.3375 20.1676 15.3375 20.1677 15.3375C20.1677 15.3375 20.1678 15.3375 20.1678 15.3375C20.1679 15.3375 20.1679 15.3375 20.168 15.3375C20.1681 15.3375 20.1681 15.3375 20.1682 15.3375C20.1682 15.3375 20.1683 15.3375 20.1683 15.3375C20.1684 15.3375 20.1684 15.3375 20.1685 15.3375C20.1685 15.3375 20.1686 15.3375 20.1687 15.3375C20.1687 15.3375 20.1688 15.3375 20.1688 15.3375C20.1689 15.3375 20.1689 15.3375 20.169 15.3375C20.169 15.3375 20.1691 15.3375 20.1691 15.3375C20.1692 15.3375 20.1693 15.3375 20.1693 15.3375C20.1694 15.3375 20.1694 15.3375 20.1695 15.3375C20.1695 15.3375 20.1696 15.3375 20.1696 15.3375C20.1697 15.3375 20.1697 15.3375 20.1698 15.3375C20.1699 15.3375 20.1699 15.3375 20.17 15.3375C20.17 15.3375 20.1701 15.3375 20.1701 15.3375C20.1702 15.3375 20.1702 15.3375 20.1703 15.3375C20.1703 15.3375 20.1704 15.3375 20.1705 15.3375C20.1705 15.3375 20.1706 15.3375 20.1706 15.3375C20.1707 15.3375 20.1707 15.3375 20.1708 15.3375C20.1708 15.3375 20.1709 15.3375 20.1709 15.3375C20.171 15.3375 20.1711 15.3375 20.1711 15.3375C20.1712 15.3375 20.1712 15.3375 20.1713 15.3375C20.1713 15.3375 20.1714 15.3375 20.1714 15.3375C20.1715 15.3375 20.1716 15.3375 20.1716 15.3375C20.1717 15.3375 20.1717 15.3375 20.1718 15.3375C20.1718 15.3375 20.1719 15.3375 20.1719 15.3375C20.172 15.3375 20.172 15.3375 20.1721 15.3375C20.1722 15.3375 20.1722 15.3375 20.1723 15.3375C20.1723 15.3375 20.1724 15.3375 20.1724 15.3375C20.1725 15.3375 20.1725 15.3375 20.1726 15.3375C20.1727 15.3375 20.1727 15.3375 20.1728 15.3375C20.1728 15.3375 20.1729 15.3375 20.1729 15.3375C20.173 15.3375 20.173 15.3375 20.1731 15.3375C20.1732 15.3375 20.1732 15.3375 20.1733 15.3375C20.1733 15.3375 20.1734 15.3375 20.1734 15.3375C20.1735 15.3375 20.1735 15.3375 20.1736 15.3375C20.1737 15.3375 20.1737 15.3375 20.1738 15.3375C20.1738 15.3375 20.1739 15.3375 20.1739 15.3375C20.174 15.3375 20.174 15.3375 20.1741 15.3375C20.1742 15.3375 20.1742 15.3375 20.1743 15.3375C20.1743 15.3375 20.1744 15.3375 20.1744 15.3375C20.1745 15.3375 20.1745 15.3375 20.1746 15.3375C20.1747 15.3375 20.1747 15.3375 20.1748 15.3375C20.1748 15.3375 20.1749 15.3375 20.1749 15.3375C20.175 15.3375 20.175 15.3375 20.1751 15.3375C20.1752 15.3375 20.1752 15.3375 20.1753 15.3375C20.1753 15.3375 20.1754 15.3375 20.1754 15.3375C20.1755 15.3375 20.1755 15.3375 20.1756 15.3375C20.1757 15.3375 20.1757 15.3375 20.1758 15.3375C20.1758 15.3375 20.1759 15.3375 20.1759 15.3375C20.176 15.3375 20.176 15.3375 20.1761 15.3375C20.1762 15.3375 20.1762 15.3375 20.1763 15.3375C20.1763 15.3375 20.1764 15.3375 20.1764 15.3375C20.1765 15.3375 20.1766 15.3375 20.1766 15.3375C20.1767 15.3375 20.1767 15.3375 20.1768 15.3375C20.1768 15.3375 20.1769 15.3375 20.1769 15.3375C20.177 15.3375 20.1771 15.3375 20.1771 15.3375C20.1772 15.3375 20.1772 15.3375 20.1773 15.3375C20.1773 15.3375 20.1774 15.3375 20.1774 15.3375C20.1775 15.3375 20.1776 15.3375 20.1776 15.3375C20.1777 15.3375 20.1777 15.3375 20.1778 15.3375C20.1778 15.3375 20.1779 15.3375 20.178 15.3375C20.178 15.3375 20.1781 15.3375 20.1781 15.3375C20.1782 15.3375 20.1782 15.3375 20.1783 15.3375C20.1783 15.3375 20.1784 15.3375 20.1785 15.3375C20.1785 15.3375 20.1786 15.3375 20.1786 15.3375C20.1787 15.3375 20.1787 15.3375 20.1788 15.3375C20.1789 15.3375 20.1789 15.3375 20.179 15.3375C20.179 15.3375 20.1791 15.3375 20.1791 15.3375C20.1792 15.3375 20.1792 15.3375 20.1793 15.3375C20.1794 15.3375 20.1794 15.3375 20.1795 15.3375C20.1795 15.3375 20.1796 15.3375 20.1796 15.3375C20.1797 15.3375 20.1798 15.3375 20.1798 15.3375C20.1799 15.3375 20.1799 15.3375 20.18 15.3375C20.18 15.3375 20.1801 15.3375 20.1801 15.3375C20.1802 15.3375 20.1803 15.3375 20.1803 15.3375C20.1804 15.3375 20.1804 15.3375 20.1805 15.3375C20.1805 15.3375 20.1806 15.3375 20.1807 15.3375C20.1807 15.3375 20.1808 15.3375 20.1808 15.3375C20.1809 15.3375 20.1809 15.3375 20.181 15.3375C20.1811 15.3375 20.1811 15.3375 20.1812 15.3375C20.1812 15.3375 20.1813 15.3375 20.1813 15.3375C20.1814 15.3375 20.1814 15.3375 20.1815 15.3375C20.1816 15.3375 20.1816 15.3375 20.1817 15.3375C20.1817 15.3375 20.1818 15.3375 20.1818 15.3375C20.1819 15.3375 20.182 15.3375 20.182 15.3375C20.1821 15.3375 20.1821 15.3375 20.1822 15.3375C20.1822 15.3375 20.1823 15.3375 20.1824 15.3375C20.1824 15.3375 20.1825 15.3375 20.1825 15.3375C20.1826 15.3375 20.1826 15.3375 20.1827 15.3375C20.1828 15.3375 20.1828 15.3375 20.1829 15.3375C20.1829 15.3375 20.183 15.3375 20.183 15.3375C20.1831 15.3375 20.1831 15.3375 20.1832 15.3375C20.1833 15.3375 20.1833 15.3375 20.1834 15.3375C20.1834 15.3375 20.1835 15.3375 20.1835 15.3375C20.1836 15.3375 20.1837 15.3375 20.1837 15.3375C20.1838 15.3375 20.1838 15.3375 20.1839 15.3375C20.1839 15.3375 20.184 15.3375 20.1841 15.3375C20.1841 15.3375 20.1842 15.3375 20.1842 15.3375C20.1843 15.3375 20.1843 15.3375 20.1844 15.3375C20.1845 15.3375 20.1845 15.3375 20.1846 15.3375C20.1846 15.3375 20.1847 15.3375 20.1847 15.3375C20.1848 15.3375 20.1849 15.3375 20.1849 15.3375C20.185 15.3375 20.185 15.3375 20.1851 15.3375C20.1851 15.3375 20.1852 15.3375 20.1853 15.3375C20.1853 15.3375 20.1854 15.3375 20.1854 15.3375C20.1855 15.3375 20.1855 15.3375 20.1856 15.3375C20.1856 15.3375 20.1857 15.3375 20.1858 15.3375C20.1858 15.3375 20.1859 15.3375 20.1859 15.3375C20.186 15.3375 20.186 15.3375 20.1861 15.3375C20.1862 15.3375 20.1862 15.3375 20.1863 15.3375C20.1863 15.3375 20.1864 15.3375 20.1864 15.3375C20.1865 15.3375 20.1866 15.3375 20.1866 15.3375C20.1867 15.3375 20.1867 15.3375 20.1868 15.3375C20.1868 15.3375 20.1869 15.3375 20.187 15.3375C20.187 15.3375 20.1871 15.3375 20.1871 15.3375C20.1872 15.3375 20.1872 15.3375 20.1873 15.3375C20.1874 15.3375 20.1874 15.3375 20.1875 15.3375C20.1875 15.3375 20.1876 15.3375 20.1876 15.3375C20.1877 15.3375 20.1878 15.3375 20.1878 15.3375C20.1879 15.3375 20.1879 15.3375 20.188 15.3375C20.188 15.3375 20.1881 15.3375 20.1882 15.3375C20.1882 15.3375 20.1883 15.3375 20.1883 15.3375C20.1884 15.3375 20.1884 15.3375 20.1885 15.3375C20.1886 15.3375 20.1886 15.3375 20.1887 15.3375C20.1887 15.3375 20.1888 15.3375 20.1888 15.3375C20.1889 15.3375 20.189 15.3375 20.189 15.3375C20.1891 15.3375 20.1891 15.3375 20.1892 15.3375C20.1892 15.3375 20.1893 15.3375 20.1894 15.3375C20.1894 15.3375 20.1895 15.3375 20.1895 15.3375C20.1896 15.3375 20.1896 15.3375 20.1897 15.3375C20.1897 15.3375 20.1898 15.3375 20.1899 15.3375C20.1899 15.3375 20.19 15.3375 20.19 15.3375C20.1901 15.3375 20.1901 15.3375 20.1902 15.3375C20.1903 15.3375 20.1903 15.3375 20.1904 15.3375C20.1904 15.3375 20.1905 15.3375 20.1905 15.3375C20.1906 15.3375 20.1907 15.3375 20.1907 15.3375C20.1908 15.3375 20.1908 15.3375 20.1909 15.3375C20.1909 15.3375 20.191 15.3375 20.1911 15.3375C20.1911 15.3375 20.1912 15.3375 20.1912 15.3375C20.1913 15.3375 20.1913 15.3375 20.1914 15.3375C20.1915 15.3375 20.1915 15.3375 20.1916 15.3375C20.1916 15.3375 20.1917 15.3375 20.1917 15.3375C20.1918 15.3375 20.1919 15.3375 20.1919 15.3375C20.192 15.3375 20.192 15.3375 20.1921 15.3375C20.1921 15.3375 20.1922 15.3375 20.1923 15.3375C20.1923 15.3375 20.1924 15.3375 20.1924 15.3375C20.1925 15.3375 20.1925 15.3375 20.1926 15.3375C20.1927 15.3375 20.1927 15.3375 20.1928 15.3375C20.1928 15.3375 20.1929 15.3375 20.1929 15.3375C20.193 15.3375 20.1931 15.3375 20.1931 15.3375C20.1932 15.3375 20.1932 15.3375 20.1933 15.3375C20.1933 15.3375 20.1934 15.3375 20.1934 15.3375C20.1935 15.3375 20.1936 15.3375 20.1936 15.3375C20.1937 15.3375 20.1937 15.3375 20.1938 15.3375C20.1938 15.3375 20.1939 15.3375 20.194 15.3375C20.194 15.3375 20.1941 15.3375 20.1941 15.3375C20.1942 15.3375 20.1942 15.3375 20.1943 15.3375C20.1944 15.3375 20.1944 15.3375 20.1945 15.3375C20.1945 15.3375 20.1946 15.3375 20.1946 15.3375C20.1947 15.3375 20.1948 15.3375 20.1948 15.3375C20.1949 15.3375 20.1949 15.3375 20.195 15.3375C20.195 15.3375 20.1951 15.3375 20.1952 15.3375C20.1952 15.3375 20.1953 15.3375 20.1953 15.3375C20.1954 15.3375 20.1954 15.3375 20.1955 15.3375C20.1956 15.3375 20.1956 15.3375 20.1957 15.3375C20.1957 15.3375 20.1958 15.3375 20.1958 15.3375C20.1959 15.3375 20.1959 15.3375 20.196 15.3375C20.1961 15.3375 20.1961 15.3375 20.1962 15.3375C20.1962 15.3375 20.1963 15.3375 20.1963 15.3375C20.1964 15.3375 20.1965 15.3375 20.1965 15.3375C20.1966 15.3375 20.1966 15.3375 20.1967 15.3375C20.1967 15.3375 20.1968 15.3375 20.1969 15.3375C20.1969 15.3375 20.197 15.3375 20.197 15.3375C20.1971 15.3375 20.1971 15.3375 20.1972 15.3375C20.1973 15.3375 20.1973 15.3375 20.1974 15.3375C20.1974 15.3375 20.1975 15.3375 20.1975 15.3375C20.1976 15.3375 20.1976 15.3375 20.1977 15.3375C20.1978 15.3375 20.1978 15.3375 20.1979 15.3375C20.1979 15.3375 20.198 15.3375 20.198 15.3375C20.1981 15.3375 20.1982 15.3375 20.1982 15.3375C20.1983 15.3375 20.1983 15.3375 20.1984 15.3375C20.1984 15.3375 20.1985 15.3375 20.1986 15.3375C20.1986 15.3375 20.1987 15.3375 20.1987 15.3375C20.1988 15.3375 20.1988 15.3375 20.1989 15.3375C20.1989 15.3375 20.199 15.3375 20.1991 15.3375C20.1991 15.3375 20.1992 15.3375 20.1992 15.3375C20.1993 15.3375 20.1993 15.3375 20.1994 15.3375C20.1995 15.3375 20.1995 15.3375 20.1996 15.3375C20.1996 15.3375 20.1997 15.3375 20.1997 15.3375C20.1998 15.3375 20.1998 15.3375 20.1999 15.3375C20.2 15.3375 20.2 15.3375 20.2001 15.3375C20.2001 15.3375 20.2002 15.3375 20.2002 15.3375C20.2003 15.3375 20.2004 15.3375 20.2004 15.3375C20.2005 15.3375 20.2005 15.3375 20.2006 15.3375C20.2006 15.3375 20.2007 15.3375 20.2007 15.3375C20.2008 15.3375 20.2009 15.3375 20.2009 15.3375C20.201 15.3375 20.201 15.3375 20.2011 15.3375C20.2011 15.3375 20.2012 15.3375 20.2013 15.3375C20.2013 15.3375 20.2014 15.3375 20.2014 15.3375C20.2015 15.3375 20.2015 15.3375 20.2016 15.3375C20.2016 15.3375 20.2017 15.3375 20.2018 15.3375C20.2018 15.3375 20.2019 15.3375 20.2019 15.3375C20.202 15.3375 20.202 15.3375 20.2021 15.3375C20.2022 15.3375 20.2022 15.3375 20.2023 15.3375C20.2023 15.3375 20.2024 15.3375 20.2024 15.3375C20.2025 15.3375 20.2025 15.3375 20.2026 15.3375C20.2027 15.3375 20.2027 15.3375 20.2028 15.3375C20.2028 15.3375 20.2029 15.3375 20.2029 15.3375C20.203 15.3375 20.203 15.3375 20.2031 15.3375C20.2032 15.3375 20.2032 15.3375 20.2033 15.3375C20.2033 15.3375 20.2034 15.3375 20.2034 15.3375C20.2035 15.3375 20.2035 15.3375 20.2036 15.3375C20.2037 15.3375 20.2037 15.3375 20.2038 15.3375C20.2038 15.3375 20.2039 15.3375 20.2039 15.3375C20.204 15.3375 20.204 15.3375 20.2041 15.3375C20.2042 15.3375 20.2042 15.3375 20.2043 15.3375C20.2043 15.3375 20.2044 15.3375 20.2044 15.3375C20.2045 15.3375 20.2045 15.3375 20.2046 15.3375C20.2047 15.3375 20.2047 15.3375 20.2048 15.3375C20.2048 15.3375 20.2049 15.3375 20.2049 15.3375C20.205 15.3375 20.205 15.3375 20.2051 15.3375C20.2052 15.3375 20.2052 15.3375 20.2053 15.3375C20.2053 15.3375 20.2054 15.3375 20.2054 15.3375C20.2055 15.3375 20.2055 15.3375 20.2056 15.3375C20.2057 15.3375 20.2057 15.3375 20.2058 15.3375C20.2058 15.3375 20.2059 15.3375 20.2059 15.3375C20.206 15.3375 20.206 15.3375 20.2061 15.3375C20.2062 15.3375 20.2062 15.3375 20.2063 15.3375C20.2063 15.3375 20.2064 15.3375 20.2064 15.3375C20.2065 15.3375 20.2065 15.3375 20.2066 15.3375C20.2067 15.3375 20.2067 15.3375 20.2068 15.3375C20.2068 15.3375 20.2069 15.3375 20.2069 15.3375C20.207 15.3375 20.207 15.3375 20.2071 15.3375C20.2071 15.3375 20.2072 15.3375 20.2073 15.3375C20.2073 15.3375 20.2074 15.3375 20.2074 15.3375C20.2075 15.3375 20.2075 15.3375 20.2076 15.3375C20.2076 15.3375 20.2077 15.3375 20.2078 15.3375C20.2078 15.3375 20.2079 15.3375 20.2079 15.3375C20.208 15.3375 20.208 15.3375 20.2081 15.3375C20.2081 15.3375 20.2082 15.3375 20.2082 15.3375C20.2083 15.3375 20.2084 15.3375 20.2084 15.3375C20.2085 15.3375 20.2085 15.3375 20.2086 15.3375C20.2086 15.3375 20.2087 15.3375 20.2087 15.3375C20.2088 15.3375 20.2088 15.3375 20.2089 15.3375C20.209 15.3375 20.209 15.3375 20.2091 15.3375C20.2091 15.3375 20.2092 15.3375 20.2092 15.3375C20.2093 15.3375 20.2093 15.3375 20.2094 15.3375C20.2094 15.3375 20.2095 15.3375 20.2096 15.3375C20.2096 15.3375 20.2097 15.3375 20.2097 15.3375C20.2098 15.3375 20.2098 15.3375 20.2099 15.3375C20.2099 15.3375 20.21 15.3375 20.21 15.3375C20.2101 15.3375 20.2102 15.3375 20.2102 15.3375C20.2103 15.3375 20.2103 15.3375 20.2104 15.3375C20.2104 15.3375 20.2105 15.3375 20.2105 15.3375C20.2106 15.3375 20.2106 15.3375 20.2107 15.3375C20.2108 15.3375 20.2108 15.3375 20.2109 15.3375C20.2109 15.3375 20.211 15.3375 20.211 15.3375C20.2111 15.3375 20.2111 15.3375 20.2112 15.3375C20.2112 15.3375 20.2113 15.3375 20.2113 15.3375C20.2114 15.3375 20.2115 15.3375 20.2115 15.3375C20.2116 15.3375 20.2116 15.3375 20.2117 15.3375C20.2117 15.3375 20.2118 15.3375 20.2118 15.3375C20.2119 15.3375 20.2119 15.3375 20.212 15.3375C20.212 15.3375 20.2121 15.3375 20.2122 15.3375C20.2122 15.3375 20.2123 15.3375 20.2123 15.3375C20.2124 15.3375 20.2124 15.3375 20.2125 15.3375C20.2125 15.3375 20.2126 15.3375 20.2126 15.3375C20.2127 15.3375 20.2127 15.3375 20.2128 15.3375C20.2129 15.3375 20.2129 15.3375 20.213 15.3375C20.213 15.3375 20.2131 15.3375 20.2131 15.3375C20.2132 15.3375 20.2132 15.3375 20.2133 15.3375C20.2133 15.3375 20.2134 15.3375 20.2134 15.3375C20.2135 15.3375 20.2135 15.3375 20.2136 15.3375C20.2137 15.3375 20.2137 15.3375 20.2138 15.3375C20.2138 15.3375 20.2139 15.3375 20.2139 15.3375C20.214 15.3375 20.214 15.3375 20.2141 15.3375C20.2141 15.3375 20.2142 15.3375 20.2142 15.3375C20.2143 15.3375 20.2143 15.3375 20.2144 15.3375C20.2145 15.3375 20.2145 15.3375 20.2146 15.3375C20.2146 15.3375 20.2147 15.3375 20.2147 15.3375C20.2148 15.3375 20.2148 15.3375 20.2149 15.3375C20.2149 15.3375 20.215 15.3375 20.215 15.3375C20.2151 15.3375 20.2151 15.3375 20.2152 15.3375C20.2152 15.3375 20.2153 15.3375 20.2154 15.3375C20.2154 15.3375 20.2155 15.3375 20.2155 15.3375C20.2156 15.3375 20.2156 15.3375 20.2157 15.3375C20.2157 15.3375 20.2158 15.3375 20.2158 15.3375C20.2159 15.3375 20.2159 15.3375 20.216 15.3375C20.216 15.3375 20.2161 15.3375 20.2161 15.3375C20.2162 15.3375 20.2162 15.3375 20.2163 15.3375C20.2163 15.3375 20.2164 15.3375 20.2165 15.3375C20.2165 15.3375 20.2166 15.3375 20.2166 15.3375C20.2167 15.3375 20.2167 15.3375 20.2168 15.3375C20.2168 15.3375 20.2169 15.3375 20.2169 15.3375C20.217 15.3375 20.217 15.3375 20.2171 15.3375C20.2171 15.3375 20.2172 15.3375 20.2172 15.3375C20.2173 15.3375 20.2173 15.3375 20.2174 15.3375C20.2174 15.3375 20.2175 15.3375 20.2175 15.3375C20.2176 15.3375 20.2177 15.3375 20.2177 15.3375C20.2178 15.3375 20.2178 15.3375 20.2179 15.3375C20.2179 15.3375 20.218 15.3375 20.218 15.3375C20.2181 15.3375 20.2181 15.3375 20.2182 15.3375C20.2182 15.3375 20.2183 15.3375 20.2183 15.3375C20.2184 15.3375 20.2184 15.3375 20.2185 15.3375C20.2185 15.3375 20.2186 15.3375 20.2186 15.3375C20.2187 15.3375 20.2187 15.3375 20.2188 15.3375C20.2188 15.3375 20.2189 15.3375 20.2189 15.3375C20.219 15.3375 20.219 15.3375 20.2191 15.3375C20.2191 15.3375 20.2192 15.3375 20.2193 15.3375C20.2193 15.3375 20.2194 15.3375 20.2194 15.3375C20.2195 15.3375 20.2195 15.3375 20.2196 15.3375C20.2196 15.3375 20.2197 15.3375 20.2197 15.3375C20.2198 15.3375 20.2198 15.3375 20.2199 15.3375C20.2199 15.3375 20.22 15.3375 20.22 15.3375C20.2201 15.3375 20.2201 15.3375 20.2202 15.3375C20.2202 15.3375 20.2203 15.3375 20.2203 15.3375C20.2204 15.3375 20.2204 15.3375 20.2205 15.3375C20.2205 15.3375 20.2206 15.3375 20.2206 15.3375C20.2207 15.3375 20.2207 15.3375 20.2208 15.3375C20.2208 15.3375 20.2209 15.3375 20.2209 15.3375C20.221 15.3375 20.221 15.3375 20.2211 15.3375C20.2211 15.3375 20.2212 15.3375 20.2212 15.3375C20.2213 15.3375 20.2213 15.3375 20.2214 15.3375C20.2214 15.3375 20.2215 15.3375 20.2215 15.3375C20.2216 15.3375 20.2216 15.3375 20.2217 15.3375C20.2217 15.3375 20.2218 15.3375 20.2218 15.3375C20.2219 15.3375 20.2219 15.3375 20.222 15.3375C20.222 15.3375 20.2221 15.3375 20.2221 15.3375C20.2222 15.3375 20.2222 15.3375 20.2223 15.3375C20.2223 15.3375 20.2224 15.3375 20.2224 15.3375C20.2225 15.3375 20.2225 15.3375 20.2226 15.3375C20.2226 15.3375 20.2227 15.3375 20.2227 15.3375C20.2228 15.3375 20.2228 15.3375 20.2229 15.3375C20.2229 15.3375 20.223 15.3375 20.223 15.3375C20.2231 15.3375 20.2231 15.3375 20.2232 15.3375C20.2232 15.3375 20.2233 15.3375 20.2233 15.3375C20.2234 15.3375 20.2234 15.3375 20.2235 15.3375C20.2235 15.3375 20.2236 15.3375 20.2236 15.3375C20.2237 15.3375 20.2237 15.3375 20.2238 15.3375C20.2238 15.3375 20.2239 15.3375 20.2239 15.3375C20.224 15.3375 20.224 15.3375 20.2241 15.3375C20.2241 15.3375 20.2242 15.3375 20.2242 15.3375C20.2243 15.3375 20.2243 15.3375 20.2244 15.3375C20.2244 15.3375 20.2245 15.3375 20.2245 15.3375C20.2246 15.3375 20.2246 15.3375 20.2247 15.3375C20.2247 15.3375 20.2248 15.3375 20.2248 15.3375C20.2249 15.3375 20.2249 15.3375 20.225 15.3375C20.225 15.3375 20.225 15.3375 20.2251 15.3375C20.2251 15.3375 20.2252 15.3375 20.2252 15.3375C20.2253 15.3375 20.2253 15.3375 20.2254 15.3375C20.2254 15.3375 20.2255 15.3375 20.2255 15.3375C20.2256 15.3375 20.2256 15.3375 20.2257 15.3375C20.2257 15.3375 20.2258 15.3375 20.2258 15.3375C20.2259 15.3375 20.2259 15.3375 20.226 15.3375C20.226 15.3375 20.2261 15.3375 20.2261 15.3375C20.2262 15.3375 20.2262 15.3375 20.2263 15.3375C20.2263 15.3375 20.2264 15.3375 20.2264 15.3375C20.2264 15.3375 20.2265 15.3375 20.2265 15.3375C20.2266 15.3375 20.2266 15.3375 20.2267 15.3375C20.2267 15.3375 20.2268 15.3375 20.2268 15.3375C20.2269 15.3375 20.2269 15.3375 20.227 15.3375C20.227 15.3375 20.2271 15.3375 20.2271 15.3375C20.2272 15.3375 20.2272 15.3375 20.2273 15.3375C20.2273 15.3375 20.2274 15.3375 20.2274 15.3375C20.2274 15.3375 20.2275 15.3375 20.2275 15.3375C20.2276 15.3375 20.2276 15.3375 20.2277 15.3375C20.2277 15.3375 20.2278 15.3375 20.2278 15.3375C20.2279 15.3375 20.2279 15.3375 20.228 15.3375C20.228 15.3375 20.2281 15.3375 20.2281 15.3375C20.2282 15.3375 20.2282 15.3375 20.2282 15.3375C20.2283 15.3375 20.2283 15.3375 20.2284 15.3375C20.2284 15.3375 20.2285 15.3375 20.2285 15.3375C20.2286 15.3375 20.2286 15.3375 20.2287 15.3375C20.2287 15.3375 20.2288 15.3375 20.2288 15.3375C20.2288 15.3375 20.2289 15.3375 20.2289 15.3375C20.229 15.3375 20.229 15.3375 20.2291 15.3375C20.2291 15.3375 20.2292 15.3375 20.2292 15.3375C20.2293 15.3375 20.2293 15.3375 20.2294 15.3375C20.2294 15.3375 20.2295 15.3375 20.2295 15.3375C20.2295 15.3375 20.2296 15.3375 20.2296 15.3375C20.2297 15.3375 20.2297 15.3375 20.2298 15.3375C20.2298 15.3375 20.2299 15.3375 20.2299 15.3375C20.23 15.3375 20.23 15.3375 20.23 15.3375C20.2301 15.3375 20.2301 15.3375 20.2302 15.3375V10.2125ZM20.4019 10.2251C17.9215 9.97864 15.9332 8.0984 15.5525 5.63959L10.4879 6.4238C11.2271 11.1983 15.0955 14.8481 19.8952 15.325L20.4019 10.2251ZM15.5557 5.66065C15.6905 6.58225 15.0566 7.40575 14.1864 7.55431L13.3239 2.50241C11.4971 2.81431 10.2098 4.52447 10.4847 6.40274L15.5557 5.66065ZM14.1262 7.56386C13.2046 7.69872 12.3811 7.06477 12.2326 6.19462L17.2845 5.3321C16.9726 3.50529 15.2624 2.218 13.3841 2.49287L14.1262 7.56386ZM12.227 6.16087C12.8505 10.1314 16.0698 13.192 20.0843 13.5869L20.586 8.4865C18.9073 8.32138 17.5532 7.04196 17.29 5.36586L12.227 6.16087ZM20.0864 13.5871C19.1358 13.4943 18.4777 12.6543 18.5665 11.7445L23.6672 12.2422C23.8493 10.3758 22.4913 8.67238 20.584 8.4863L20.0864 13.5871ZM18.5762 11.6591C18.6844 10.8368 19.378 10.2125 20.2302 10.2125V15.3375C21.969 15.3375 23.4326 14.0366 23.6575 12.3277L18.5762 11.6591Z" fill="#0D1112" fill-opacity="0.61" mask="url(#path-3-inside-2_408_698)"/>
<mask id="path-5-inside-3_408_698" fill="white">
<path d="M24.499 26.5417H3.49902C3.02069 26.5417 2.62402 26.145 2.62402 25.6667C2.62402 25.1884 3.02069 24.7917 3.49902 24.7917H24.499C24.9774 24.7917 25.374 25.1884 25.374 25.6667C25.374 26.145 24.9774 26.5417 24.499 26.5417Z"/>
</mask>
<path d="M24.499 26.5417H3.49902C3.02069 26.5417 2.62402 26.145 2.62402 25.6667C2.62402 25.1884 3.02069 24.7917 3.49902 24.7917H24.499C24.9774 24.7917 25.374 25.1884 25.374 25.6667C25.374 26.145 24.9774 26.5417 24.499 26.5417Z" fill="#0D1112" fill-opacity="0.61"/>
<path d="M24.499 23.9792H3.49902V29.1042H24.499V23.9792ZM3.49902 23.9792C4.43592 23.9792 5.18652 24.7298 5.18652 25.6667H0.0615234C0.0615234 27.5603 1.60546 29.1042 3.49902 29.1042V23.9792ZM5.18652 25.6667C5.18652 26.6036 4.43592 27.3542 3.49902 27.3542V22.2292C1.60546 22.2292 0.0615234 23.7731 0.0615234 25.6667H5.18652ZM3.49902 27.3542H24.499V22.2292H3.49902V27.3542ZM24.499 27.3542C23.5621 27.3542 22.8115 26.6036 22.8115 25.6667H27.9365C27.9365 23.7731 26.3926 22.2292 24.499 22.2292V27.3542ZM22.8115 25.6667C22.8115 24.7298 23.5621 23.9792 24.499 23.9792V29.1042C26.3926 29.1042 27.9365 27.5603 27.9365 25.6667H22.8115Z" fill="#0D1112" fill-opacity="0.61" mask="url(#path-5-inside-3_408_698)"/>
</svg>
