<svg width="41" height="41" viewBox="0 0 41 41" fill="none" xmlns="http://www.w3.org/2000/svg">
<rect width="41" height="41" fill="white"/>
<path d="M30.7502 12.2317C30.6477 12.2146 30.5281 12.2146 30.4256 12.2317C28.0681 12.1463 26.189 10.2158 26.189 7.82417C26.189 5.38125 28.1535 3.41667 30.5965 3.41667C33.0394 3.41667 35.004 5.39834 35.004 7.82417C34.9869 10.2158 33.1077 12.1463 30.7502 12.2317Z" stroke="#1565D8" stroke-width="2.5625" stroke-linecap="round" stroke-linejoin="round"/>
<path d="M28.9902 24.6683C31.3306 25.0613 33.9102 24.6513 35.7211 23.4383C38.1298 21.8325 38.1298 19.2017 35.7211 17.5958C33.8931 16.3829 31.2794 15.9729 28.939 16.3829" stroke="#1565D8" stroke-width="2.5625" stroke-linecap="round" stroke-linejoin="round"/>
<path d="M10.1986 12.2317C10.3011 12.2146 10.4207 12.2146 10.5232 12.2317C12.8807 12.1463 14.7598 10.2158 14.7598 7.82417C14.7598 5.38125 12.7952 3.41667 10.3523 3.41667C7.90941 3.41667 5.94482 5.39834 5.94482 7.82417C5.96191 10.2158 7.84108 12.1463 10.1986 12.2317Z" stroke="#1565D8" stroke-width="2.5625" stroke-linecap="round" stroke-linejoin="round"/>
<path d="M11.9583 24.6683C9.61788 25.0613 7.03829 24.6513 5.22746 23.4383C2.81871 21.8325 2.81871 19.2017 5.22746 17.5958C7.05538 16.3829 9.66912 15.9729 12.0095 16.3829" stroke="#1565D8" stroke-width="2.5625" stroke-linecap="round" stroke-linejoin="round"/>
<path d="M20.5002 24.9929C20.3977 24.9758 20.2781 24.9758 20.1756 24.9929C17.8181 24.9075 15.939 22.9771 15.939 20.5854C15.939 18.1425 17.9035 16.1779 20.3465 16.1779C22.7894 16.1779 24.754 18.1596 24.754 20.5854C24.7369 22.9771 22.8577 24.9246 20.5002 24.9929Z" stroke="#1565D8" stroke-width="2.5625" stroke-linecap="round" stroke-linejoin="round"/>
<path d="M15.5292 30.3742C13.1205 31.98 13.1205 34.6108 15.5292 36.2167C18.2626 38.0446 22.7384 38.0446 25.4717 36.2167C27.8805 34.6108 27.8805 31.98 25.4717 30.3742C22.7555 28.5633 18.2626 28.5633 15.5292 30.3742Z" stroke="#1565D8" stroke-width="2.5625" stroke-linecap="round" stroke-linejoin="round"/>
</svg>
