<svg width="41" height="41" viewBox="0 0 41 41" fill="none" xmlns="http://www.w3.org/2000/svg">
<path d="M15.6484 18.5696C15.4775 18.5525 15.2725 18.5525 15.0846 18.5696C11.0188 18.4329 7.79004 15.1017 7.79004 11.0017C7.79004 6.81625 11.1725 3.41666 15.375 3.41666C19.5605 3.41666 22.96 6.81625 22.96 11.0017C22.943 15.1017 19.7142 18.4329 15.6484 18.5696Z" stroke="#1565D8" stroke-width="2.5625" stroke-linecap="round" stroke-linejoin="round"/>
<path d="M28.0336 6.83334C31.3478 6.83334 34.0128 9.51542 34.0128 12.8125C34.0128 16.0413 31.4503 18.6721 28.2557 18.7917C28.119 18.7746 27.9653 18.7746 27.8115 18.7917" stroke="#1565D8" stroke-width="2.5625" stroke-linecap="round" stroke-linejoin="round"/>
<path d="M7.10697 24.8733C2.97281 27.6408 2.97281 32.1508 7.10697 34.9012C11.8049 38.0446 19.5095 38.0446 24.2074 34.9012C28.3416 32.1337 28.3416 27.6237 24.2074 24.8733C19.5266 21.7471 11.822 21.7471 7.10697 24.8733Z" stroke="#1565D8" stroke-width="2.5625" stroke-linecap="round" stroke-linejoin="round"/>
<path d="M31.3306 34.1667C32.5606 33.9104 33.7222 33.415 34.6789 32.6804C37.3439 30.6817 37.3439 27.3846 34.6789 25.3858C33.7393 24.6683 32.5947 24.19 31.3818 23.9167" stroke="#1565D8" stroke-width="2.5625" stroke-linecap="round" stroke-linejoin="round"/>
</svg>
