<svg width="41" height="41" viewBox="0 0 41 41" fill="none" xmlns="http://www.w3.org/2000/svg">
<path d="M15.3748 37.5833H25.6248C34.1665 37.5833 37.5832 34.1667 37.5832 25.625V15.375C37.5832 6.83333 34.1665 3.41666 25.6248 3.41666H15.3748C6.83317 3.41666 3.4165 6.83333 3.4165 15.375V25.625C3.4165 34.1667 6.83317 37.5833 15.3748 37.5833Z" stroke="#292D32" stroke-width="1.5" stroke-linecap="round" stroke-linejoin="round"/>
<path d="M15.3752 17.0833C17.2621 17.0833 18.7918 15.5536 18.7918 13.6667C18.7918 11.7797 17.2621 10.25 15.3752 10.25C13.4882 10.25 11.9585 11.7797 11.9585 13.6667C11.9585 15.5536 13.4882 17.0833 15.3752 17.0833Z" stroke="#292D32" stroke-width="1.5" stroke-linecap="round" stroke-linejoin="round"/>
<path d="M4.56104 32.3729L12.9831 26.7183C14.3327 25.8129 16.2802 25.9154 17.4931 26.9575L18.0569 27.4529C19.3894 28.5975 21.5419 28.5975 22.8744 27.4529L29.981 21.3542C31.3135 20.2096 33.466 20.2096 34.7985 21.3542L37.5831 23.7458" stroke="#292D32" stroke-width="1.5" stroke-linecap="round" stroke-linejoin="round"/>
</svg>
