<svg width="42" height="41" viewBox="0 0 42 41" fill="none" xmlns="http://www.w3.org/2000/svg">
<path d="M23.0944 5.83325L23.0971 5.83535L34.9323 15.2967C34.9328 15.2971 34.9333 15.2975 34.9338 15.2979C35.3712 15.6507 35.7979 16.264 36.0827 17.0105C36.3672 17.7563 36.4588 18.5008 36.368 19.0611C36.3679 19.0619 36.3677 19.0627 36.3676 19.0635L34.0969 32.6533C34.0968 32.6539 34.0967 32.6546 34.0966 32.6552C33.7901 34.4494 31.9822 35.9775 30.1667 35.9775H11.0334C9.19928 35.9775 7.40987 34.4651 7.10352 32.6558C7.10346 32.6555 7.10341 32.6551 7.10335 32.6548L4.83167 19.0588L4.83169 19.0588L4.83034 19.051C4.73389 18.495 4.82081 17.7542 5.10456 17.0105C5.38824 16.2669 5.81748 15.6546 6.26144 15.3017L6.26144 15.3017L6.26511 15.2988L18.1039 5.81756L18.1045 5.81706C19.4444 4.74257 21.7328 4.73884 23.0944 5.83325ZM15.0479 22.2083C15.0479 25.2734 17.5349 27.7604 20.6 27.7604C23.6651 27.7604 26.1521 25.2734 26.1521 22.2083C26.1521 19.1432 23.6651 16.6562 20.6 16.6562C17.5349 16.6562 15.0479 19.1432 15.0479 22.2083Z" fill="#1565D8" stroke="#1565D8" stroke-width="2.5625"/>
</svg>
