<svg width="41" height="41" viewBox="0 0 41 41" fill="none" xmlns="http://www.w3.org/2000/svg">
<path d="M20.4998 36.9855C19.9703 36.9855 19.4578 36.9171 19.0307 36.7634C12.5048 34.5255 2.13525 26.5817 2.13525 14.8455C2.13525 8.86631 6.96984 4.01465 12.9148 4.01465C15.8019 4.01465 18.5011 5.14215 20.4998 7.15798C22.4986 5.14215 25.1978 4.01465 28.0848 4.01465C34.0298 4.01465 38.8644 8.8834 38.8644 14.8455C38.8644 26.5988 28.4948 34.5255 21.969 36.7634C21.5419 36.9171 21.0294 36.9855 20.4998 36.9855ZM12.9148 6.57715C8.38775 6.57715 4.69775 10.2842 4.69775 14.8455C4.69775 26.5134 15.9215 33.0051 19.8678 34.3546C20.1753 34.4571 20.8415 34.4571 21.149 34.3546C25.0782 33.0051 36.319 26.5305 36.319 14.8455C36.319 10.2842 32.629 6.57715 28.1019 6.57715C25.5053 6.57715 23.0965 7.79007 21.5419 9.89132C21.0636 10.5405 19.9703 10.5405 19.4919 9.89132C17.9032 7.77298 15.5115 6.57715 12.9148 6.57715Z" fill="#292D32"/>
</svg>
