<svg width="41" height="41" viewBox="0 0 41 41" fill="none" xmlns="http://www.w3.org/2000/svg">
<rect width="41" height="41" fill="white"/>
<path d="M30.75 32.2191H29.4516C28.085 32.2191 26.7867 32.7487 25.83 33.7054L22.9088 36.5925C21.5763 37.9079 19.4066 37.9079 18.0741 36.5925L15.1529 33.7054C14.1962 32.7487 12.8808 32.2191 11.5312 32.2191H10.25C7.41417 32.2191 5.125 29.9471 5.125 27.1454V8.50746C5.125 5.70579 7.41417 3.43376 10.25 3.43376H30.75C33.5858 3.43376 35.875 5.70579 35.875 8.50746V27.1454C35.875 29.93 33.5858 32.2191 30.75 32.2191Z" stroke="#1565D8" stroke-width="2.5625" stroke-miterlimit="10" stroke-linecap="round" stroke-linejoin="round"/>
<path d="M20.9783 25.5567C20.7221 25.6421 20.295 25.6421 20.0217 25.5567C17.8008 24.7879 12.8125 21.6275 12.8125 16.2463C12.8125 13.8717 14.7258 11.9583 17.0833 11.9583C18.4842 11.9583 19.7142 12.6246 20.5 13.6667C21.2858 12.6246 22.5158 11.9583 23.9167 11.9583C26.2742 11.9583 28.1875 13.8717 28.1875 16.2463C28.1704 21.6275 23.1992 24.7879 20.9783 25.5567Z" stroke="#1565D8" stroke-width="2.5625" stroke-linecap="round" stroke-linejoin="round"/>
</svg>
