<svg width="41" height="41" viewBox="0 0 41 41" fill="none" xmlns="http://www.w3.org/2000/svg">
<path d="M31.5017 5.22749H9.49837C8.36665 5.23065 7.28218 5.68162 6.48192 6.48188C5.68167 7.28213 5.23069 8.3666 5.22754 9.49833V31.5017C5.23069 32.6334 5.68167 33.7179 6.48192 34.5181C7.28218 35.3184 8.36665 35.7693 9.49837 35.7725H31.5017C32.6344 35.7725 33.7207 35.3225 34.5216 34.5216C35.3226 33.7207 35.7725 32.6344 35.7725 31.5017V9.49833C35.7725 8.36563 35.3226 7.27933 34.5216 6.47839C33.7207 5.67745 32.6344 5.22749 31.5017 5.22749ZM34.0642 31.5017C34.0593 32.1798 33.7877 32.8287 33.3082 33.3082C32.8287 33.7877 32.1798 34.0592 31.5017 34.0642H9.49837C8.82028 34.0592 8.17135 33.7877 7.69185 33.3082C7.21235 32.8287 6.94079 32.1798 6.93587 31.5017V9.49833C6.94079 8.82023 7.21235 8.1713 7.69185 7.6918C8.17135 7.2123 8.82028 6.94075 9.49837 6.93583H31.5017C32.1798 6.94075 32.8287 7.2123 33.3082 7.6918C33.7877 8.1713 34.0593 8.82023 34.0642 9.49833V31.5017Z" fill="#1565D8"/>
<path d="M10.8921 18.3612C10.8921 17.9081 11.0721 17.4736 11.3924 17.1532C11.7128 16.8328 12.1473 16.6528 12.6004 16.6528C13.0535 16.6528 13.488 16.8328 13.8084 17.1532C14.1288 17.4736 14.3088 17.9081 14.3088 18.3612V29.4653C14.3088 29.9184 14.1288 30.3529 13.8084 30.6733C13.488 30.9937 13.0535 31.1737 12.6004 31.1737C12.1473 31.1737 11.7128 30.9937 11.3924 30.6733C11.0721 30.3529 10.8921 29.9184 10.8921 29.4653V18.3612Z" fill="#1565D8"/>
<path d="M12.6004 13.2293C13.5439 13.2293 14.3088 12.4645 14.3088 11.521C14.3088 10.5775 13.5439 9.81267 12.6004 9.81267C11.6569 9.81267 10.8921 10.5775 10.8921 11.521C10.8921 12.4645 11.6569 13.2293 12.6004 13.2293Z" fill="#1565D8"/>
<path d="M30.1008 22.8404V29.4688C30.1008 29.9218 29.9208 30.3564 29.6004 30.6767C29.28 30.9971 28.8455 31.1771 28.3924 31.1771C27.9394 31.1771 27.5048 30.9971 27.1845 30.6767C26.8641 30.3564 26.6841 29.9218 26.6841 29.4688V22.8404C26.6841 22.1087 26.3934 21.407 25.876 20.8895C25.3586 20.3721 24.6569 20.0815 23.9251 20.0815C23.1934 20.0815 22.4917 20.3721 21.9743 20.8895C21.4569 21.407 21.1662 22.1087 21.1662 22.8404V29.4688C21.1662 29.9218 20.9862 30.3564 20.6658 30.6767C20.3454 30.9971 19.9109 31.1771 19.4578 31.1771C19.0048 31.1771 18.5702 30.9971 18.2499 30.6767C17.9295 30.3564 17.7495 29.9218 17.7495 29.4688V18.3646C17.7566 17.9137 17.9388 17.4833 18.2577 17.1644C18.5765 16.8456 19.007 16.6633 19.4578 16.6563C19.7472 16.6483 20.0333 16.7188 20.2859 16.8601C20.5385 17.0014 20.7482 17.2084 20.8928 17.4592C21.8321 16.9262 22.8949 16.6494 23.9748 16.6563C25.0547 16.6632 26.1139 16.9536 27.0463 17.4985C27.9787 18.0434 28.7516 18.8236 29.2876 19.7611C29.8237 20.6986 30.1041 21.7605 30.1008 22.8404Z" fill="#1565D8"/>
</svg>
