<svg width="166" height="72" viewBox="0 0 166 72" fill="none" xmlns="http://www.w3.org/2000/svg">
<rect x="0.508057" y="7.41684" width="57.8387" height="57.1663" rx="28.5832" fill="#1565D8"/>
<path fill-rule="evenodd" clip-rule="evenodd" d="M18.0723 49.8281C15.421 50.9831 12.5164 51.3424 9.70371 50.8998C7.90598 50.617 7.06987 48.6644 7.7357 46.9707C8.40153 45.277 10.343 44.5166 12.1626 44.4921C13.2806 44.4771 14.3954 44.2414 15.4404 43.7862C17.5054 42.8866 19.1285 41.2036 19.9526 39.1073C20.7767 37.011 20.7343 34.6732 19.8347 32.6082C19.3795 31.5633 18.7237 30.6315 17.9152 29.8591C16.5994 28.602 15.6956 26.723 16.3614 25.0293C17.0272 23.3356 18.9692 22.4752 20.4783 23.4923C21.6957 24.3129 22.7859 25.3062 23.7147 26.4395C23.9477 26.7238 24.3901 26.7239 24.6232 26.4395C26.7698 23.8202 29.7354 21.9994 33.0425 21.2704C36.3497 20.5415 39.8059 20.9467 42.8548 22.4208C45.9037 23.8949 48.3678 26.3522 49.8503 29.397C50.7103 31.1633 51.211 33.0677 51.3393 35.0016C51.494 37.3325 49.1773 38.8036 46.8946 38.307C44.6119 37.8104 43.2872 35.4013 42.3252 33.2725C42.2991 33.2148 42.2722 33.1574 42.2444 33.1004C41.5934 31.7633 40.5113 30.6842 39.1724 30.0369C37.8336 29.3895 36.3158 29.2116 34.8635 29.5317C33.4112 29.8518 32.1089 30.6514 31.1663 31.8016C30.2236 32.9519 29.6955 34.3859 29.6669 35.8728C29.6384 37.3596 30.111 38.8129 31.0088 39.9985C31.9065 41.1841 33.1772 42.0331 34.6161 42.4087C34.6775 42.4248 34.739 42.4399 34.8007 42.4541C37.077 42.9791 39.6995 43.8048 40.6348 45.9454C41.5701 48.0861 40.5829 50.6466 38.267 50.9529C36.3456 51.207 34.38 51.0902 32.4791 50.594C29.2024 49.7385 26.3089 47.8052 24.2645 45.1053C24.2166 45.0421 24.1212 45.0421 24.0733 45.1053C22.5247 47.1503 20.4657 48.7855 18.0723 49.8281Z" fill="white"/>
<mask id="path-3-outside-1_19_11" maskUnits="userSpaceOnUse" x="64.0876" y="11" width="39" height="50" fill="black">
<rect fill="white" x="64.0876" y="11" width="39" height="50"/>
<path d="M92.4465 15.7563C95.894 15.7563 97.6178 17.6919 97.6178 21.5632C97.6178 22.5839 97.3963 23.0943 96.9533 23.0943C96.7029 23.0943 96.1058 22.815 95.1621 22.2565C94.2376 21.6787 93.4672 21.2839 92.8509 21.072C90.116 20.1283 87.6892 19.6564 85.5706 19.6564C83.452 19.6564 81.9979 20.1764 81.2083 21.2165C80.1104 22.661 79.5615 25.3188 79.5615 29.1901C79.5615 30.5768 80.0334 31.6072 80.9771 32.2813C81.9209 32.9554 82.9994 33.2925 84.2128 33.2925C85.4454 33.2925 86.6877 32.8784 87.9396 32.0502C89.2108 31.2028 89.856 30.7791 89.8752 30.7791C90.8382 30.7791 91.4931 31.1546 91.8398 31.9058C92.2057 32.6569 92.3887 33.8799 92.3887 35.5748C92.3887 38.5601 91.7049 40.0527 90.3375 40.0527C89.9715 40.0527 89.2108 39.5905 88.0552 38.666C86.8996 37.7223 85.6766 37.2504 84.3861 37.2504C82.1713 37.2504 80.6979 37.7223 79.966 38.666C79.4845 39.2823 79.2437 41.1313 79.2437 44.2129C79.2437 47.2945 79.7926 49.5479 80.8905 50.9731C81.5068 51.7628 82.9802 52.1576 85.3106 52.1576C87.6411 52.1576 90.3567 51.6569 93.4576 50.6554C94.3243 50.3857 95.0177 50.0679 95.5377 49.702C96.0577 49.336 96.5873 48.9508 97.1266 48.5464C97.6659 48.1227 98.003 47.9108 98.1378 47.9108C98.7926 47.9108 99.12 48.2382 99.12 48.8931V49.8175C99.12 51.3006 98.86 52.5236 98.34 53.4866C97.8392 54.4303 97.377 55.037 96.9533 55.3066C96.1636 55.8074 93.0243 56.0578 87.5352 56.0578H83.7217L82.4505 56.0289C75.1895 56.0289 71.0005 55.9519 69.8834 55.7978C68.7663 55.6244 68.2078 55.1911 68.2078 54.4977C68.2078 54.0547 68.7278 53.4962 69.7678 52.8221C70.8079 52.148 71.482 51.3006 71.7901 50.2798C72.0983 49.259 72.2524 45.2626 72.2524 38.2904L72.3679 26.9945C72.3679 23.2965 72.1368 21.0046 71.6746 20.1187C71.4627 19.7142 70.8656 19.252 69.8834 18.7319C68.9011 18.2119 68.41 17.7497 68.41 17.3452C68.41 16.5748 69.0359 16.0933 70.2878 15.9007C70.8079 15.8237 74.9006 15.7852 82.5661 15.7852L91.2331 15.7563H92.4465Z"/>
</mask>
<path d="M95.1621 22.2565L93.0716 25.6014L93.112 25.6267L93.1531 25.651L95.1621 22.2565ZM92.8509 21.072L91.5642 24.8007L91.5687 24.8022L92.8509 21.072ZM81.2083 21.2165L84.3487 23.6032L84.3498 23.6017L81.2083 21.2165ZM87.9396 32.0502L90.1159 35.34L90.1276 35.3322L87.9396 32.0502ZM91.8398 31.9058L88.2584 33.5587L88.2757 33.5962L88.2937 33.6333L91.8398 31.9058ZM88.0552 38.666L85.5602 41.7211L85.5756 41.7337L85.5911 41.7461L88.0552 38.666ZM79.966 38.666L83.0743 41.0944L83.083 41.0833L79.966 38.666ZM80.8905 50.9731L77.7656 53.3802L77.7733 53.3901L77.781 53.4L80.8905 50.9731ZM93.4576 50.6554L92.2858 46.889L92.2655 46.8953L92.2453 46.9018L93.4576 50.6554ZM97.1266 48.5464L99.4933 51.7019L99.5287 51.6754L99.5636 51.648L97.1266 48.5464ZM98.34 53.4866L94.8693 51.6124L94.8624 51.625L94.8557 51.6377L98.34 53.4866ZM96.9533 55.3066L99.0657 58.6378L99.071 58.6344L96.9533 55.3066ZM83.7217 56.0578L83.6321 60.0012L83.6769 60.0022H83.7217V56.0578ZM82.4505 56.0289L82.5401 52.0855L82.4953 52.0844H82.4505V56.0289ZM69.8834 55.7978L69.2786 59.6956L69.3114 59.7007L69.3444 59.7052L69.8834 55.7978ZM72.2524 38.2904L68.3081 38.2501L68.3079 38.2703V38.2904H72.2524ZM72.3679 26.9945L76.3122 27.0348L76.3124 27.0146V26.9945H72.3679ZM71.6746 20.1187L75.1716 18.2941L75.1687 18.2884L71.6746 20.1187ZM70.2878 15.9007L69.7098 11.9989L69.6989 12.0005L69.6881 12.0021L70.2878 15.9007ZM82.5661 15.7852V19.7296L82.5792 19.7296L82.5661 15.7852ZM91.2331 15.7563V11.8118L91.2199 11.8118L91.2331 15.7563ZM92.4465 19.7007C93.4362 19.7007 93.4917 19.9575 93.3792 19.8313C93.3444 19.7921 93.6733 20.1301 93.6733 21.5632H101.562C101.562 19.1249 101.029 16.5595 99.2706 14.5847C97.4344 12.5228 94.9042 11.8118 92.4465 11.8118V19.7007ZM93.6733 21.5632C93.6733 21.9093 93.6176 21.6381 93.8332 21.1413C93.96 20.8492 94.2475 20.3265 94.8412 19.8705C95.4885 19.3733 96.2484 19.1499 96.9533 19.1499V27.0388C97.8796 27.0388 98.8334 26.7515 99.6468 26.1268C100.407 25.5431 100.833 24.829 101.07 24.2818C101.507 23.2746 101.562 22.2378 101.562 21.5632H93.6733ZM96.9533 19.1499C97.1181 19.1499 97.2585 19.1612 97.3678 19.1742C97.4781 19.1873 97.571 19.2038 97.6432 19.2188C97.7836 19.2478 97.8848 19.2791 97.9351 19.2957C97.9887 19.3134 98.0195 19.326 98.0229 19.3274C98.0275 19.3293 98.0169 19.325 97.9889 19.312C97.9307 19.2847 97.8331 19.236 97.6892 19.1578C97.5474 19.0807 97.3756 18.983 97.1711 18.862L93.1531 25.651C93.6731 25.9587 94.1821 26.2406 94.6465 26.4578C94.8776 26.5659 95.1592 26.6871 95.4659 26.7882C95.7102 26.8687 96.2649 27.0388 96.9533 27.0388V19.1499ZM97.2527 18.9116C96.2195 18.2659 95.1585 17.6943 94.1332 17.3418L91.5687 24.8022C91.776 24.8735 92.2557 25.0915 93.0716 25.6014L97.2527 18.9116ZM94.1376 17.3433C91.1294 16.3053 88.2546 15.712 85.5706 15.712V23.6009C87.1239 23.6009 89.1026 23.9513 91.5643 24.8007L94.1376 17.3433ZM85.5706 15.712C82.9868 15.712 79.9684 16.3265 78.0667 18.8312L84.3498 23.6017C84.2028 23.7953 84.0789 23.8107 84.2193 23.7605C84.3942 23.698 84.8076 23.6009 85.5706 23.6009V15.712ZM78.0678 18.8298C76.1154 21.3988 75.6171 25.2492 75.6171 29.1901H83.506C83.506 25.3885 84.1055 23.9231 84.3487 23.6032L78.0678 18.8298ZM75.6171 29.1901C75.6171 31.5676 76.4934 33.926 78.6845 35.4911L83.2698 29.0716C83.2968 29.0909 83.3427 29.1292 83.3922 29.1888C83.4421 29.2489 83.4785 29.3099 83.5017 29.3606C83.5484 29.4627 83.506 29.4406 83.506 29.1901H75.6171ZM78.6845 35.4911C80.3294 36.666 82.2178 37.2369 84.2128 37.2369V29.348C83.7811 29.348 83.5124 29.2449 83.2698 29.0716L78.6845 35.4911ZM84.2128 37.2369C86.3736 37.2369 88.3604 36.5013 90.1159 35.34L85.7633 28.7605C85.015 29.2555 84.5173 29.348 84.2128 29.348V37.2369ZM90.1276 35.3322C90.7614 34.9097 91.2313 34.598 91.5421 34.3939C91.6998 34.2903 91.8041 34.2226 91.8642 34.1843C91.8982 34.1626 91.8964 34.1642 91.8749 34.1772C91.87 34.1801 91.8191 34.211 91.7471 34.2501C91.7176 34.2661 91.625 34.3162 91.501 34.3725C91.4424 34.399 91.3149 34.4554 91.1472 34.5126C91.0621 34.5417 90.9245 34.5854 90.7514 34.6249C90.6625 34.6452 90.5469 34.6683 90.4107 34.687C90.2774 34.7052 90.094 34.7235 89.8752 34.7235V26.8346C89.1806 26.8346 88.6552 27.0274 88.6005 27.0461C88.4317 27.1037 88.3026 27.1607 88.2422 27.1881C88.1145 27.246 88.0171 27.2986 87.9815 27.3179C87.8973 27.3637 87.8293 27.4045 87.8025 27.4207C87.737 27.4601 87.6717 27.5014 87.6226 27.5327C87.5166 27.6003 87.3766 27.6915 87.2117 27.7998C86.8773 28.0194 86.389 28.3433 85.7516 28.7682L90.1276 35.3322ZM89.8752 34.7235C89.8544 34.7235 89.5392 34.7192 89.1262 34.4824C88.6752 34.2237 88.3935 33.8516 88.2584 33.5587L95.4212 30.2528C94.9393 29.2088 94.1569 28.2733 93.051 27.6391C91.9833 27.0267 90.8591 26.8346 89.8752 26.8346V34.7235ZM88.2937 33.6333C88.2383 33.5195 88.2927 33.5841 88.3504 33.97C88.4046 34.3324 88.4442 34.8566 88.4442 35.5748H96.3331C96.3331 33.7742 96.1672 31.7822 95.3858 30.1782L88.2937 33.6333ZM88.4442 35.5748C88.4442 36.1805 88.4089 36.6264 88.3612 36.9385C88.3117 37.2628 88.2628 37.3494 88.2898 37.2906C88.3199 37.2247 88.4847 36.8959 88.914 36.5835C89.3856 36.2403 89.9142 36.1083 90.3375 36.1083V43.9972C91.4445 43.9972 92.5714 43.6786 93.5558 42.9622C94.4978 42.2767 95.09 41.3881 95.462 40.5759C96.1611 39.0497 96.3331 37.2448 96.3331 35.5748H88.4442ZM90.3375 36.1083C90.6935 36.1083 90.9702 36.1625 91.1338 36.2032C91.3034 36.2454 91.4245 36.2915 91.4861 36.3168C91.6011 36.364 91.6273 36.3877 91.5406 36.3351C91.4646 36.2888 91.34 36.2072 91.1602 36.0771C90.983 35.9489 90.7702 35.7867 90.5193 35.5859L85.5911 41.7461C86.2269 42.2548 86.8559 42.7196 87.4443 43.077C87.738 43.2555 88.0952 43.4526 88.4919 43.6153C88.834 43.7557 89.5022 43.9972 90.3375 43.9972V36.1083ZM90.5502 35.6109C88.806 34.1865 86.7248 33.306 84.3862 33.306V41.1949C84.6283 41.1949 84.9932 41.2581 85.5602 41.7211L90.5502 35.6109ZM84.3862 33.306C81.9286 33.306 78.7713 33.77 76.849 36.2488L83.083 41.0833C82.8349 41.4031 82.6223 41.4251 82.823 41.3608C83.0428 41.2904 83.5264 41.1949 84.3862 41.1949V33.306ZM76.8577 36.2376C76.2956 36.957 76.0167 37.7314 75.8647 38.2504C75.6975 38.8208 75.5888 39.4226 75.5129 40.0057C75.361 41.1721 75.2993 42.5962 75.2993 44.2129H83.1882C83.1882 42.748 83.2469 41.7068 83.3357 41.0243C83.3802 40.6829 83.4219 40.5142 83.4353 40.4684C83.4639 40.371 83.3956 40.6832 83.0743 41.0944L76.8577 36.2376ZM75.2993 44.2129C75.2993 47.6052 75.8738 50.9242 77.7656 53.3802L84.0154 48.5661C83.7114 48.1716 83.1882 46.9837 83.1882 44.2129H75.2993ZM77.781 53.4C78.8283 54.7419 80.2813 55.3619 81.4368 55.6715C82.6326 55.992 83.9617 56.1021 85.3106 56.1021V48.2132C84.3291 48.2132 83.7563 48.1259 83.4787 48.0515C83.3508 48.0172 83.3631 48.0058 83.4585 48.0598C83.5599 48.1173 83.7789 48.2631 83.9999 48.5462L77.781 53.4ZM85.3106 56.1021C88.1803 56.1021 91.3208 55.4906 94.6699 54.4089L92.2453 46.9018C89.3926 47.8232 87.1019 48.2132 85.3106 48.2132V56.1021ZM94.6294 54.4217C95.7351 54.0777 96.8422 53.6072 97.8077 52.9278L93.2677 46.4762C93.1932 46.5286 92.9135 46.6937 92.2858 46.889L94.6294 54.4217ZM97.8077 52.9278C98.3621 52.5376 98.924 52.1289 99.4933 51.7019L94.76 45.3908C94.2507 45.7728 93.7533 46.1345 93.2677 46.4762L97.8077 52.9278ZM99.5636 51.648C99.7902 51.47 99.885 51.408 99.883 51.4092C99.8766 51.4132 99.8527 51.4281 99.8139 51.4496C99.7769 51.4701 99.7085 51.5066 99.6143 51.5489C99.5256 51.5888 99.3693 51.654 99.1614 51.7134C98.9698 51.7681 98.6074 51.8553 98.1378 51.8553V43.9664C97.2423 43.9664 96.5684 44.269 96.3831 44.3521C96.0935 44.4822 95.8509 44.6257 95.6848 44.7302C95.3457 44.9433 95.0024 45.1991 94.6897 45.4448L99.5636 51.648ZM98.1378 51.8553C97.8572 51.8553 96.9222 51.7824 96.0853 50.9455C95.2484 50.1086 95.1756 49.1737 95.1756 48.8931H103.064C103.064 47.9576 102.828 46.5316 101.664 45.3672C100.499 44.2029 99.0732 43.9664 98.1378 43.9664V51.8553ZM95.1756 48.8931V49.8175H103.064V48.8931H95.1756ZM95.1756 49.8175C95.1756 50.8683 94.9876 51.3932 94.8693 51.6124L101.811 55.3608C102.732 53.6539 103.064 51.7328 103.064 49.8175H95.1756ZM94.8557 51.6377C94.7655 51.8077 94.687 51.9436 94.6209 52.05C94.5543 52.1573 94.5069 52.2239 94.4802 52.2589C94.4524 52.2954 94.4594 52.2815 94.5044 52.2369C94.5477 52.1941 94.6563 52.093 94.8356 51.9789L99.071 58.6344C100.427 57.7714 101.289 56.345 101.824 55.3354L94.8557 51.6377ZM94.8409 51.9755C95.3176 51.6732 95.6117 51.6784 95.1798 51.761C94.886 51.8172 94.4057 51.8812 93.6929 51.938C92.2765 52.051 90.2395 52.1133 87.5352 52.1133V60.0022C90.3199 60.0022 92.5972 59.9394 94.3201 59.802C95.177 59.7336 95.9727 59.6412 96.6611 59.5095C97.2115 59.4043 98.1941 59.1905 99.0657 58.6378L94.8409 51.9755ZM87.5352 52.1133H83.7217V60.0022H87.5352V52.1133ZM83.8113 52.1144L82.5401 52.0855L82.3609 59.9723L83.6321 60.0012L83.8113 52.1144ZM82.4505 52.0844C78.8295 52.0844 75.9946 52.0652 73.9355 52.0273C72.9048 52.0084 72.0859 51.9851 71.4688 51.9582C71.1604 51.9447 70.9155 51.931 70.7277 51.9175C70.6344 51.9109 70.5616 51.9047 70.5067 51.8995C70.4796 51.8968 70.4589 51.8946 70.444 51.8929C70.4288 51.8912 70.422 51.8903 70.4223 51.8903L69.3444 59.7052C70.1847 59.8211 71.7718 59.8778 73.7904 59.9149C75.9204 59.9541 78.8105 59.9733 82.4505 59.9733V52.0844ZM70.4882 51.9C70.2345 51.8606 70.5696 51.8578 71.0446 52.2263C71.3163 52.4371 71.6208 52.7617 71.8465 53.2171C72.0734 53.6748 72.1522 54.1266 72.1522 54.4977H64.2633C64.2633 56.091 64.9885 57.5125 66.2087 58.4592C67.2422 59.2611 68.4152 59.5616 69.2786 59.6956L70.4882 51.9ZM72.1522 54.4977C72.1522 55.1692 71.9548 55.6748 71.8059 55.9615C71.6605 56.2417 71.5183 56.3983 71.4847 56.4344C71.4305 56.4926 71.5187 56.3878 71.9132 56.1321L67.6225 49.5121C66.9769 49.9305 66.2851 50.442 65.7109 51.0588C65.2242 51.5815 64.2633 52.7694 64.2633 54.4977H72.1522ZM71.9132 56.1321C73.6023 55.0373 74.9455 53.476 75.5662 51.4197L68.014 49.1398C68.0066 49.1645 67.9975 49.1864 67.9665 49.2254C67.9303 49.2709 67.8354 49.3741 67.6225 49.5121L71.9132 56.1321ZM75.5662 51.4197C75.7697 50.7459 75.8619 49.9502 75.9202 49.3181C75.987 48.593 76.0385 47.7026 76.0783 46.6688C76.1582 44.5962 76.1968 41.796 76.1968 38.2904H68.3079C68.3079 41.757 68.2695 44.441 68.1953 46.3649C68.1581 47.3294 68.1133 48.0652 68.0645 48.5944C68.0072 49.2166 67.9647 49.3033 68.014 49.1398L75.5662 51.4197ZM76.1966 38.3308L76.3122 27.0348L68.4237 26.9541L68.3081 38.2501L76.1966 38.3308ZM76.3124 26.9945C76.3124 25.082 76.2534 23.4379 76.1191 22.1063C76.002 20.9448 75.7856 19.4708 75.1716 18.2941L68.1775 21.9432C68.0619 21.7218 68.0717 21.6473 68.1241 21.8876C68.1686 22.0915 68.2217 22.4183 68.27 22.8978C68.3669 23.8582 68.4235 25.209 68.4235 26.9945H76.3124ZM75.1687 18.2884C74.6822 17.3597 73.9728 16.7292 73.4826 16.3497C72.9431 15.932 72.3359 15.5672 71.7289 15.2459L68.0378 22.218C68.2176 22.3132 68.358 22.3943 68.4646 22.4606C68.5727 22.5278 68.6314 22.5707 68.6532 22.5876C68.6779 22.6067 68.6362 22.5776 68.5598 22.4958C68.5199 22.453 68.4637 22.3885 68.3997 22.3016C68.3359 22.2149 68.2583 22.0975 68.1804 21.9489L75.1687 18.2884ZM71.7289 15.2459C71.3763 15.0592 71.3582 15.0066 71.4817 15.1229C71.5522 15.1892 71.7452 15.3818 71.9338 15.7147C72.1314 16.0633 72.3544 16.6237 72.3544 17.3452H64.4655C64.4655 19.1741 65.5418 20.3658 66.075 20.8676C66.6896 21.4461 67.4082 21.8847 68.0378 22.218L71.7289 15.2459ZM72.3544 17.3452C72.3544 17.7023 72.2777 18.1409 72.0554 18.5856C71.8346 19.0271 71.5394 19.3366 71.2844 19.5328C70.844 19.8716 70.5626 19.8493 70.8876 19.7993L69.6881 12.0021C68.7612 12.1447 67.5409 12.4595 66.4745 13.2798C65.2193 14.2453 64.4655 15.6999 64.4655 17.3452H72.3544ZM70.8659 19.8026C70.6999 19.8272 70.7646 19.8104 71.4465 19.7934C71.9927 19.7797 72.7688 19.7679 73.7845 19.7583C75.8122 19.7392 78.7371 19.7296 82.5661 19.7296V11.8407C78.7296 11.8407 75.7754 11.8503 73.7103 11.8698C72.6796 11.8795 71.856 11.8917 71.249 11.907C70.7777 11.9188 70.1358 11.9358 69.7098 11.9989L70.8659 19.8026ZM82.5792 19.7296L91.2462 19.7007L91.2199 11.8118L82.5529 11.8407L82.5792 19.7296ZM91.2331 19.7007H92.4465V11.8118H91.2331V19.7007Z" fill="#1565D8" mask="url(#path-3-outside-1_19_11)"/>
<mask id="path-5-outside-2_19_11" maskUnits="userSpaceOnUse" x="108.661" y="12" width="57" height="48" fill="black">
<rect fill="white" x="108.661" y="12" width="57" height="48"/>
<path d="M137.135 43.6351C137.405 43.6351 139.273 39.8987 142.74 32.4258C146.207 24.9336 148.345 20.5713 149.154 19.3386C149.963 18.106 150.897 17.2778 151.956 16.8541C153.015 16.4111 154.701 16.1896 157.012 16.1896C159.342 16.1896 160.507 16.7289 160.507 17.8075L159.814 18.6742L158.919 19.6275C158.341 20.3787 157.927 21.255 157.676 22.2565C157.445 23.2388 157.33 24.8662 157.33 27.1389C157.33 36.8074 157.58 43.8566 158.081 48.2864C158.273 50.0198 158.899 51.3872 159.959 52.3888C161.018 53.371 161.548 54.0259 161.548 54.3533L160.825 54.8733C159.901 55.297 158.081 55.5089 155.365 55.5089C152.649 55.5089 150.945 55.1526 150.252 54.4399L149.963 53.8044C149.963 53.2458 150.175 52.0999 150.598 50.3665C151.022 48.6138 151.234 46.8708 151.234 45.1374C151.234 32.5028 150.829 26.1855 150.02 26.1855C149.616 26.1855 147.777 30.0953 144.502 37.9149C141.228 45.7344 139.216 50.3279 138.464 51.6954C137.733 53.0436 136.76 53.7177 135.547 53.7177C134.699 53.7177 132.378 49.0953 128.584 39.8505C124.809 30.5865 122.594 25.9544 121.939 25.9544C121.4 25.9544 121.13 30.6828 121.13 40.1394C121.13 44.3381 121.198 46.9189 121.333 47.8819C121.468 48.8449 121.689 50.0005 121.997 51.3487C122.325 52.6969 122.488 53.5925 122.488 54.0355C122.488 54.4785 122.19 54.8444 121.593 55.1333C120.996 55.4222 120.225 55.5667 119.281 55.5667H117.693C114.515 55.5667 112.926 55.1622 112.926 54.3533C112.926 53.9488 113.465 53.2843 114.544 52.3599C115.641 51.4161 116.277 50.6072 116.45 49.9331C116.643 49.2397 116.893 45.7729 117.201 39.5327C117.51 33.2732 117.664 29.0264 117.664 26.7922C117.664 24.5581 117.529 23.0076 117.259 22.1409C116.99 21.255 116.364 20.3305 115.381 19.3675C114.418 18.4045 113.937 17.6726 113.937 17.1719C113.937 16.5556 115.718 16.2474 119.281 16.2474C120.649 16.2474 121.833 16.44 122.835 16.8252C123.836 17.1911 124.819 18.0867 125.782 19.512C126.764 20.9179 128.806 25.29 131.906 32.628C135.007 39.9661 136.75 43.6351 137.135 43.6351Z"/>
</mask>
<path d="M142.74 32.4258L146.318 34.0857L146.32 34.0822L142.74 32.4258ZM151.956 16.8541L153.421 20.5164L153.45 20.505L153.478 20.4931L151.956 16.8541ZM160.507 17.8075L163.588 20.2715L164.452 19.1911V17.8075H160.507ZM159.814 18.6742L162.689 21.3748L162.796 21.2606L162.894 21.1382L159.814 18.6742ZM158.919 19.6275L156.044 16.9269L155.911 17.0685L155.792 17.2226L158.919 19.6275ZM157.676 22.2565L153.85 21.2998L153.843 21.3264L153.837 21.3531L157.676 22.2565ZM158.081 48.2864L162.001 47.8508L162 47.8433L158.081 48.2864ZM159.959 52.3888L157.249 55.255L157.263 55.2681L157.277 55.2811L159.959 52.3888ZM161.548 54.3533L163.852 57.5543L165.492 56.3737V54.3533H161.548ZM160.825 54.8733L162.469 58.459L162.818 58.2989L163.13 58.0743L160.825 54.8733ZM150.252 54.4399L146.661 56.0722L146.945 56.6979L147.424 57.1906L150.252 54.4399ZM149.963 53.8044H146.018V54.6588L146.372 55.4366L149.963 53.8044ZM150.598 50.3665L154.43 51.3031L154.432 51.2934L150.598 50.3665ZM138.464 51.6954L135.007 49.7964L135.003 49.8049L134.998 49.8135L138.464 51.6954ZM128.584 39.8505L124.931 41.339L124.935 41.3481L128.584 39.8505ZM121.997 51.3487L118.152 52.2276L118.158 52.2537L118.164 52.2796L121.997 51.3487ZM114.544 52.3599L117.111 55.3547L117.115 55.351L114.544 52.3599ZM116.45 49.9331L112.65 48.8774L112.64 48.914L112.63 48.9508L116.45 49.9331ZM117.201 39.5327L121.141 39.7273L121.141 39.7267L117.201 39.5327ZM117.259 22.1409L113.486 23.2894L113.489 23.3011L113.493 23.3127L117.259 22.1409ZM115.381 19.3675L112.592 22.1567L112.606 22.1705L112.62 22.1841L115.381 19.3675ZM122.835 16.8252L121.419 20.5067L121.45 20.5187L121.481 20.5301L122.835 16.8252ZM125.782 19.512L122.513 21.7203L122.531 21.7458L122.548 21.771L125.782 19.512ZM137.135 47.5795C138.22 47.5795 138.985 47.1405 139.273 46.9586C139.619 46.74 139.861 46.5131 139.987 46.3876C140.244 46.132 140.427 45.8845 140.518 45.7573C140.72 45.4752 140.908 45.1617 141.061 44.8934C141.385 44.328 141.791 43.5479 142.267 42.5968C143.228 40.6753 144.581 37.8305 146.318 34.0857L139.162 30.7658C137.432 34.4939 136.118 37.2538 135.211 39.0688C134.752 39.9859 134.425 40.6069 134.214 40.9756C134.1 41.1744 134.07 41.2112 134.105 41.1626C134.113 41.1521 134.225 40.9922 134.423 40.795C134.52 40.6987 134.735 40.4937 135.058 40.2897C135.323 40.1224 136.068 39.6906 137.135 39.6906V47.5795ZM146.32 34.0822C148.048 30.3472 149.435 27.4137 150.486 25.2707C151.58 23.0367 152.208 21.8736 152.451 21.5028L145.856 17.1745C145.29 18.0363 144.445 19.6707 143.402 21.7991C142.314 24.0185 140.899 27.0122 139.16 30.7693L146.32 34.0822ZM152.451 21.5028C152.946 20.7489 153.304 20.5633 153.421 20.5164L150.491 13.1918C148.49 13.9923 146.979 15.4631 145.856 17.1745L152.451 21.5028ZM153.478 20.4931C153.778 20.3677 154.801 20.1341 157.012 20.1341V12.2452C154.6 12.2452 152.253 12.4546 150.434 13.215L153.478 20.4931ZM157.012 20.1341C157.452 20.1341 157.753 20.1602 157.94 20.1891C158.139 20.2197 158.12 20.24 157.977 20.1737C157.826 20.1037 157.437 19.8896 157.088 19.4049C156.71 18.8799 156.563 18.2937 156.563 17.8075H164.452C164.452 16.7819 164.159 15.7238 163.49 14.7944C162.849 13.9052 162.024 13.3541 161.29 13.0144C159.922 12.3814 158.357 12.2452 157.012 12.2452V20.1341ZM157.427 15.3434L156.734 16.2101L162.894 21.1382L163.588 20.2715L157.427 15.3434ZM156.939 15.9735L156.044 16.9269L161.793 22.3282L162.689 21.3748L156.939 15.9735ZM155.792 17.2226C154.855 18.4404 154.22 19.82 153.85 21.2998L161.503 23.2132C161.634 22.69 161.826 22.317 162.045 22.0325L155.792 17.2226ZM153.837 21.3531C153.492 22.8172 153.385 24.8439 153.385 27.1389H161.274C161.274 24.8886 161.398 23.6603 161.516 23.1599L153.837 21.3531ZM153.385 27.1389C153.385 36.8258 153.634 44.0639 154.161 48.7295L162 47.8433C161.526 43.6493 161.274 36.789 161.274 27.1389H153.385ZM154.16 48.722C154.435 51.1928 155.384 53.4916 157.249 55.255L162.668 49.5225C162.415 49.2829 162.112 48.8468 162.001 47.8508L154.16 48.722ZM157.277 55.2811C157.503 55.4913 157.684 55.6673 157.823 55.8113C157.966 55.9583 158.047 56.0516 158.083 56.0971C158.131 56.1564 158.069 56.0894 157.976 55.9184C157.927 55.8278 157.845 55.6609 157.77 55.4293C157.697 55.2039 157.603 54.8307 157.603 54.3533H165.492C165.492 53.3084 165.106 52.5184 164.92 52.1742C164.695 51.7576 164.434 51.4042 164.217 51.136C163.78 50.5952 163.226 50.0389 162.641 49.4964L157.277 55.2811ZM159.243 51.1522L158.521 51.6722L163.13 58.0743L163.852 57.5543L159.243 51.1522ZM159.182 51.2875C159.283 51.2411 159.084 51.342 158.311 51.432C157.605 51.5141 156.636 51.5644 155.365 51.5644V59.4533C156.81 59.4533 158.108 59.3977 159.223 59.268C160.27 59.1461 161.443 58.9292 162.469 58.459L159.182 51.2875ZM155.365 51.5644C154.146 51.5644 153.34 51.4815 152.857 51.3806C152.622 51.3316 152.543 51.2942 152.567 51.3049C152.586 51.3134 152.811 51.4137 153.079 51.6893L147.424 57.1906C148.594 58.3929 150.13 58.8701 151.243 59.1026C152.465 59.358 153.869 59.4533 155.365 59.4533V51.5644ZM153.842 52.8077L153.554 52.1721L146.372 55.4366L146.661 56.0722L153.842 52.8077ZM153.907 53.8044C153.907 53.906 153.902 53.7765 154 53.2431C154.087 52.7714 154.228 52.1308 154.43 51.3031L146.767 49.4298C146.368 51.0616 146.018 52.6841 146.018 53.8044H153.907ZM154.432 51.2934C154.926 49.2494 155.178 47.1953 155.178 45.1374H147.289C147.289 46.5462 147.118 47.9782 146.764 49.4396L154.432 51.2934ZM155.178 45.1374C155.178 38.8013 155.077 33.9606 154.867 30.6715C154.763 29.0527 154.625 27.6672 154.425 26.626C154.332 26.1406 154.182 25.4874 153.904 24.8685C153.77 24.5678 153.502 24.037 153.012 23.5274C152.493 22.9866 151.482 22.2411 150.02 22.2411V30.13C148.659 30.13 147.747 29.4338 147.322 28.9918C146.928 28.5808 146.752 28.1981 146.705 28.0949C146.605 27.8708 146.619 27.8098 146.678 28.1141C146.781 28.6522 146.895 29.6357 146.994 31.1755C147.188 34.2037 147.289 38.8389 147.289 45.1374H155.178ZM150.02 22.2411C148.545 22.2411 147.596 23.0396 147.396 23.2068C147.056 23.4911 146.819 23.7796 146.692 23.9413C146.425 24.2839 146.198 24.657 146.027 24.9553C145.665 25.5859 145.241 26.4351 144.768 27.4388C143.811 29.473 142.507 32.4688 140.864 36.3914L148.141 39.4383C149.773 35.5414 151.024 32.6725 151.907 30.797C152.354 29.8458 152.67 29.2288 152.869 28.882C152.978 28.6915 152.987 28.6981 152.911 28.7963C152.88 28.8359 152.726 29.0327 152.46 29.2559C152.333 29.362 151.445 30.13 150.02 30.13V22.2411ZM140.864 36.3914C137.544 44.3208 135.631 48.6611 135.007 49.7964L141.922 53.5944C142.8 51.9948 144.913 47.1481 148.141 39.4383L140.864 36.3914ZM134.998 49.8135C134.842 50.1004 134.79 50.0732 134.939 49.9702C135.017 49.9164 135.123 49.861 135.249 49.822C135.375 49.7833 135.48 49.7732 135.547 49.7732V57.6621C138.605 57.6621 140.723 55.8022 141.931 53.5773L134.998 49.8135ZM135.547 49.7732C136.383 49.7732 136.994 50.0521 137.298 50.2221C137.612 50.3978 137.806 50.574 137.877 50.642C138.014 50.7721 138.019 50.8118 137.888 50.621C137.644 50.2649 137.25 49.5864 136.695 48.481C135.604 46.3067 134.12 42.951 132.233 38.3529L124.935 41.3481C126.842 45.9948 128.416 49.5727 129.645 52.0208C130.251 53.2266 130.833 54.2815 131.381 55.081C131.646 55.468 132.001 55.941 132.442 56.36C132.706 56.6103 133.813 57.6621 135.547 57.6621V49.7732ZM132.237 38.362C130.342 33.7118 128.809 30.1508 127.65 27.7269C127.079 26.5313 126.549 25.5092 126.076 24.7456C125.85 24.38 125.55 23.932 125.187 23.5292C125.007 23.3303 124.711 23.0279 124.301 22.7489C123.938 22.5016 123.107 22.01 121.939 22.01V29.8989C120.854 29.8989 120.116 29.4435 119.86 29.2685C119.556 29.0619 119.378 28.8681 119.33 28.8139C119.227 28.7006 119.238 28.6868 119.37 28.9003C119.614 29.2947 119.997 30.0096 120.533 31.13C121.589 33.3381 123.051 36.7251 124.931 41.339L132.237 38.362ZM121.939 22.01C120.315 22.01 119.284 22.9316 118.844 23.4458C118.41 23.9532 118.188 24.46 118.086 24.7137C117.871 25.2531 117.761 25.8019 117.698 26.1758C117.558 26.9927 117.464 28.0592 117.395 29.2761C117.253 31.7565 117.186 35.3943 117.186 40.1394H125.075C125.075 35.4278 125.143 31.9731 125.271 29.7252C125.336 28.578 125.411 27.8713 125.473 27.5061C125.511 27.289 125.511 27.3945 125.413 27.6384C125.371 27.7444 125.21 28.1404 124.839 28.5738C124.462 29.0142 123.496 29.8989 121.939 29.8989V22.01ZM117.186 40.1394C117.186 44.2207 117.244 47.1286 117.426 48.4288L125.239 47.335C125.151 46.7092 125.075 44.4554 125.075 40.1394H117.186ZM117.426 48.4288C117.582 49.5388 117.828 50.8113 118.152 52.2276L125.842 50.4698C125.55 49.1897 125.353 48.151 125.239 47.335L117.426 48.4288ZM118.164 52.2796C118.318 52.9139 118.422 53.395 118.485 53.7408C118.517 53.9128 118.534 54.0283 118.542 54.0972C118.552 54.1785 118.544 54.1444 118.544 54.0355H126.433C126.433 53.0365 126.135 51.6718 125.83 50.4178L118.164 52.2796ZM118.544 54.0355C118.544 53.2858 118.824 52.6198 119.208 52.1488C119.538 51.7436 119.851 51.5941 119.875 51.5827L123.311 58.6839C124.508 58.1045 126.433 56.6839 126.433 54.0355H118.544ZM119.875 51.5827C119.941 51.5503 119.942 51.5623 119.84 51.5814C119.737 51.6007 119.557 51.6222 119.281 51.6222V59.5111C120.586 59.5111 122.001 59.3178 123.311 58.6839L119.875 51.5827ZM119.281 51.6222H117.693V59.5111H119.281V51.6222ZM117.693 51.6222C116.186 51.6222 115.394 51.5181 115.09 51.4408C114.92 51.3973 115.208 51.4367 115.618 51.7492C115.849 51.926 116.173 52.232 116.44 52.7072C116.72 53.2062 116.87 53.7759 116.87 54.3533H108.981C108.981 56.0745 109.91 57.3164 110.83 58.019C111.636 58.6349 112.521 58.927 113.144 59.0859C114.429 59.413 116.021 59.5111 117.693 59.5111V51.6222ZM116.87 54.3533C116.87 54.738 116.807 55.0536 116.742 55.2782C116.678 55.5027 116.602 55.6716 116.548 55.7779C116.447 55.9783 116.367 56.0692 116.393 56.0372C116.41 56.0161 116.471 55.9446 116.6 55.8186C116.725 55.6957 116.893 55.5416 117.111 55.3547L111.977 49.365C111.358 49.8951 110.752 50.4688 110.267 51.0659C110.024 51.3662 109.741 51.7569 109.505 52.2245C109.283 52.6655 108.981 53.4103 108.981 54.3533H116.87ZM117.115 55.351C118.287 54.3437 119.772 52.8538 120.27 50.9154L112.63 48.9508C112.683 48.7449 112.748 48.6175 112.771 48.5752C112.794 48.5319 112.794 48.5428 112.742 48.6084C112.632 48.7485 112.399 49.0022 111.972 49.3687L117.115 55.351ZM120.251 50.9888C120.4 50.4516 120.477 49.7834 120.528 49.3107C120.59 48.7269 120.653 47.9835 120.717 47.0971C120.845 45.3193 120.986 42.8578 121.141 39.7273L113.262 39.3382C113.108 42.4479 112.97 44.8399 112.848 46.5289C112.787 47.3759 112.732 48.0192 112.683 48.4754C112.623 49.0428 112.597 49.0679 112.65 48.8774L120.251 50.9888ZM121.141 39.7267C121.449 33.4784 121.608 29.1379 121.608 26.7922H113.719C113.719 28.9149 113.57 33.068 113.262 39.3388L121.141 39.7267ZM121.608 26.7922C121.608 24.5732 121.493 22.4719 121.026 20.9692L113.493 23.3127C113.492 23.3116 113.515 23.3876 113.546 23.5702C113.575 23.7468 113.606 23.9853 113.633 24.2955C113.687 24.92 113.719 25.7447 113.719 26.7922H121.608ZM121.033 20.9925C120.5 19.2412 119.385 17.7687 118.143 16.5509L112.62 22.1841C112.964 22.5219 113.185 22.7937 113.321 22.9946C113.457 23.1948 113.487 23.2924 113.486 23.2894L121.033 20.9925ZM118.17 16.5784C117.988 16.396 117.851 16.247 117.751 16.13C117.65 16.0107 117.604 15.9446 117.593 15.9284C117.579 15.9065 117.635 15.9857 117.701 16.1556C117.765 16.32 117.881 16.6762 117.881 17.1719H109.992C109.992 18.5787 110.617 19.6785 111.003 20.2643C111.448 20.9412 112.013 21.5776 112.592 22.1567L118.17 16.5784ZM117.881 17.1719C117.881 18.1345 117.506 18.9285 117.062 19.467C116.667 19.9453 116.258 20.18 116.088 20.2685C115.772 20.4325 115.634 20.4192 115.945 20.3652C116.492 20.2707 117.553 20.1918 119.281 20.1918V12.303C117.447 12.303 115.836 12.3782 114.601 12.5918C114.022 12.6919 113.215 12.8712 112.454 13.2663C111.803 13.6042 109.992 14.7655 109.992 17.1719H117.881ZM119.281 20.1918C120.292 20.1918 120.974 20.3357 121.419 20.5067L124.251 13.1437C122.692 12.5443 121.006 12.303 119.281 12.303V20.1918ZM121.481 20.5301C121.397 20.4994 121.463 20.5016 121.665 20.6861C121.87 20.8724 122.159 21.1952 122.513 21.7203L129.05 17.3036C127.884 15.5781 126.317 13.8981 124.189 13.1203L121.481 20.5301ZM122.548 21.771C122.814 22.1516 123.437 23.2907 124.476 25.5144C125.467 27.6372 126.731 30.5145 128.273 34.1634L135.54 31.0927C133.981 27.4035 132.674 24.4257 131.624 22.1765C130.62 20.0282 129.732 18.2783 129.015 17.2529L122.548 21.771ZM128.273 34.1634C129.829 37.8454 131.067 40.6613 131.976 42.5759C132.425 43.5198 132.831 44.3247 133.18 44.9263C133.345 45.2101 133.567 45.5727 133.832 45.9083C133.958 46.0669 134.195 46.3517 134.535 46.6325C134.739 46.8016 135.68 47.5795 137.135 47.5795V39.6906C138.543 39.6906 139.425 40.4399 139.56 40.5516C139.831 40.7752 139.988 40.974 140.022 41.0179C140.106 41.1242 140.105 41.1428 140.004 40.968C139.821 40.6523 139.525 40.0814 139.102 39.1907C138.269 37.4363 137.085 34.7487 135.54 31.0927L128.273 34.1634Z" fill="#1565D8" mask="url(#path-5-outside-2_19_11)"/>
</svg>
