<svg width="28" height="28" viewBox="0 0 28 28" fill="none" xmlns="http://www.w3.org/2000/svg">
<mask id="path-1-inside-1_408_713" fill="white">
<path d="M14.0225 23.9517C11.3042 23.9517 8.58586 23.52 6.00753 22.6567C5.02753 22.3183 4.28086 21.63 3.9542 20.7317C3.61586 19.8333 3.73253 18.8417 4.2692 17.955L5.61086 15.7267C5.89086 15.26 6.14753 14.3267 6.14753 13.7783V10.4067C6.14753 6.06668 9.68253 2.53168 14.0225 2.53168C18.3625 2.53168 21.8975 6.06668 21.8975 10.4067V13.7783C21.8975 14.315 22.1542 15.26 22.4342 15.7383L23.7642 17.955C24.2659 18.795 24.3592 19.81 24.0209 20.7317C23.6825 21.6533 22.9475 22.3533 22.0259 22.6567C19.4592 23.52 16.7409 23.9517 14.0225 23.9517ZM14.0225 4.28168C10.6509 4.28168 7.89753 7.02334 7.89753 10.4067V13.7783C7.89753 14.63 7.54753 15.89 7.11586 16.625L5.7742 18.8533C5.51753 19.285 5.44753 19.74 5.5992 20.125C5.7392 20.5217 6.0892 20.825 6.56753 20.9883C11.4442 22.6217 16.6125 22.6217 21.4892 20.9883C21.9092 20.8483 22.2359 20.5333 22.3875 20.1133C22.5392 19.6933 22.5042 19.2383 22.2709 18.8533L20.9292 16.625C20.4859 15.8667 20.1475 14.6183 20.1475 13.7667V10.4067C20.1475 7.02334 17.4059 4.28168 14.0225 4.28168Z"/>
</mask>
<path d="M14.0225 23.9517C11.3042 23.9517 8.58586 23.52 6.00753 22.6567C5.02753 22.3183 4.28086 21.63 3.9542 20.7317C3.61586 19.8333 3.73253 18.8417 4.2692 17.955L5.61086 15.7267C5.89086 15.26 6.14753 14.3267 6.14753 13.7783V10.4067C6.14753 6.06668 9.68253 2.53168 14.0225 2.53168C18.3625 2.53168 21.8975 6.06668 21.8975 10.4067V13.7783C21.8975 14.315 22.1542 15.26 22.4342 15.7383L23.7642 17.955C24.2659 18.795 24.3592 19.81 24.0209 20.7317C23.6825 21.6533 22.9475 22.3533 22.0259 22.6567C19.4592 23.52 16.7409 23.9517 14.0225 23.9517ZM14.0225 4.28168C10.6509 4.28168 7.89753 7.02334 7.89753 10.4067V13.7783C7.89753 14.63 7.54753 15.89 7.11586 16.625L5.7742 18.8533C5.51753 19.285 5.44753 19.74 5.5992 20.125C5.7392 20.5217 6.0892 20.825 6.56753 20.9883C11.4442 22.6217 16.6125 22.6217 21.4892 20.9883C21.9092 20.8483 22.2359 20.5333 22.3875 20.1133C22.5392 19.6933 22.5042 19.2383 22.2709 18.8533L20.9292 16.625C20.4859 15.8667 20.1475 14.6183 20.1475 13.7667V10.4067C20.1475 7.02334 17.4059 4.28168 14.0225 4.28168Z" fill="#0D1112" fill-opacity="0.61"/>
<path d="M6.00753 22.6567L5.17129 25.0789L5.18258 25.0828L5.1939 25.0866L6.00753 22.6567ZM3.9542 20.7317L6.36242 19.856L6.35742 19.8422L6.35226 19.8285L3.9542 20.7317ZM4.2692 17.955L6.46142 19.2819L6.46449 19.2768L4.2692 17.955ZM5.61086 15.7267L7.80616 17.0485L7.80819 17.0451L5.61086 15.7267ZM22.4342 15.7383L20.2227 17.0329L20.2297 17.0448L20.2369 17.0567L22.4342 15.7383ZM23.7642 17.955L25.9642 16.6411L25.9615 16.6366L23.7642 17.955ZM22.0259 22.6567L21.2248 20.2226L21.2168 20.2252L21.2089 20.2279L22.0259 22.6567ZM7.11586 16.625L9.31116 17.9468L9.31838 17.9348L9.32547 17.9227L7.11586 16.625ZM5.7742 18.8533L3.5789 17.5316L3.57525 17.5376L3.57164 17.5437L5.7742 18.8533ZM5.5992 20.125L8.01561 19.2722L8.00027 19.2287L7.98337 19.1858L5.5992 20.125ZM6.56753 20.9883L5.73947 23.4134L5.74658 23.4158L5.75371 23.4182L6.56753 20.9883ZM21.4892 20.9883L20.6789 18.5573L20.6754 18.5585L21.4892 20.9883ZM22.2709 18.8533L20.0756 20.1751L20.0794 20.1815L22.2709 18.8533ZM20.9292 16.625L18.717 17.9183L18.7254 17.9326L18.7339 17.9468L20.9292 16.625ZM20.1475 10.4067H17.585H20.1475ZM14.0225 21.3892C11.5736 21.3892 9.13053 21.0001 6.82116 20.2268L5.1939 25.0866C8.0412 26.04 11.0348 26.5142 14.0225 26.5142V21.3892ZM6.84377 20.2345C6.49745 20.1149 6.39196 19.9372 6.36242 19.856L1.54598 21.6074C2.16976 23.3228 3.55761 24.5218 5.17129 25.0789L6.84377 20.2345ZM6.35226 19.8285C6.31976 19.7422 6.28748 19.5693 6.46142 19.2819L2.07698 16.6281C1.17758 18.1141 0.91197 19.9245 1.55614 21.6348L6.35226 19.8285ZM6.46449 19.2768L7.80616 17.0485L3.41557 14.4049L2.0739 16.6332L6.46449 19.2768ZM7.80819 17.0451C8.11609 16.5319 8.3251 15.9343 8.45478 15.4633C8.58487 14.9908 8.71003 14.3732 8.71003 13.7783H3.58503C3.58503 13.7325 3.58872 13.7468 3.57491 13.8302C3.56257 13.9049 3.54201 13.9998 3.51361 14.103C3.48519 14.2062 3.45445 14.2975 3.42737 14.3666C3.39684 14.4444 3.38761 14.4515 3.41354 14.4083L7.80819 17.0451ZM8.71003 13.7783V10.4067H3.58503V13.7783H8.71003ZM8.71003 10.4067C8.71003 7.48191 11.0978 5.09418 14.0225 5.09418V-0.0308228C8.2673 -0.0308228 3.58503 4.65145 3.58503 10.4067H8.71003ZM14.0225 5.09418C16.9473 5.09418 19.335 7.48191 19.335 10.4067H24.46C24.46 4.65145 19.7778 -0.0308228 14.0225 -0.0308228V5.09418ZM19.335 10.4067V13.7783H24.46V10.4067H19.335ZM19.335 13.7783C19.335 14.3692 19.461 14.9871 19.5889 15.4553C19.7175 15.9264 19.9234 16.5216 20.2227 17.0329L24.6457 14.4438C24.6667 14.4797 24.6546 14.4653 24.6226 14.3825C24.5939 14.3081 24.562 14.212 24.5328 14.1051C24.5036 13.9982 24.4826 13.9006 24.47 13.8246C24.4558 13.7388 24.46 13.7271 24.46 13.7783H19.335ZM20.2369 17.0567L21.5669 19.2734L25.9615 16.6366L24.6315 14.4199L20.2369 17.0567ZM21.5642 19.2689C21.667 19.4411 21.6888 19.6484 21.6153 19.8486L26.4264 21.6147C27.0296 19.9716 26.8647 18.1489 25.9642 16.6411L21.5642 19.2689ZM21.6153 19.8486C21.5503 20.0258 21.4124 20.1609 21.2248 20.2226L22.8269 25.0907C24.4826 24.5458 25.8148 23.2808 26.4264 21.6147L21.6153 19.8486ZM21.2089 20.2279C18.9139 20.9999 16.472 21.3892 14.0225 21.3892V26.5142C17.0097 26.5142 20.0045 26.0402 22.8428 25.0855L21.2089 20.2279ZM14.0225 1.71918C9.23881 1.71918 5.33503 5.60494 5.33503 10.4067H10.46C10.46 8.44175 12.0629 6.84418 14.0225 6.84418V1.71918ZM5.33503 10.4067V13.7783H10.46V10.4067H5.33503ZM5.33503 13.7783C5.33503 14.1618 5.11295 14.9754 4.90626 15.3273L9.32547 17.9227C9.98211 16.8047 10.46 15.0982 10.46 13.7783H5.33503ZM4.92057 15.3032L3.5789 17.5316L7.96949 20.1751L9.31116 17.9468L4.92057 15.3032ZM3.57164 17.5437C3.03449 18.4471 2.69392 19.7414 3.21502 21.0642L7.98337 19.1858C8.20114 19.7386 8.00057 20.1229 7.97676 20.163L3.57164 17.5437ZM3.18278 20.9779C3.65023 22.3023 4.73108 23.069 5.73947 23.4134L7.39559 18.5633C7.44731 18.581 7.82816 18.741 8.01561 19.2722L3.18278 20.9779ZM5.75371 23.4182C11.1585 25.2284 16.8982 25.2284 22.303 23.4182L20.6754 18.5585C16.3268 20.015 11.7299 20.015 7.38135 18.5585L5.75371 23.4182ZM22.2995 23.4193C23.456 23.0339 24.377 22.1488 24.7977 20.9837L19.9774 19.243C20.0948 18.9179 20.3624 18.6628 20.6789 18.5573L22.2995 23.4193ZM24.7977 20.9837C25.1981 19.8749 25.1182 18.6074 24.4623 17.5252L20.0794 20.1815C19.8902 19.8693 19.8803 19.5118 19.9774 19.243L24.7977 20.9837ZM24.4662 17.5316L23.1245 15.3032L18.7339 17.9468L20.0756 20.1751L24.4662 17.5316ZM23.1414 15.3317C22.9244 14.9605 22.71 14.1577 22.71 13.7667H17.585C17.585 15.079 18.0474 16.7729 18.717 17.9183L23.1414 15.3317ZM22.71 13.7667V10.4067H17.585V13.7667H22.71ZM22.71 10.4067C22.71 5.60811 18.8211 1.71918 14.0225 1.71918V6.84418C15.9906 6.84418 17.585 8.43857 17.585 10.4067H22.71Z" fill="#0D1112" fill-opacity="0.61" mask="url(#path-1-inside-1_408_713)"/>
<path d="M16.1934 4.59665C16.1117 4.59665 16.0301 4.58498 15.9484 4.56165C15.6101 4.46831 15.2834 4.39831 14.9684 4.35165C13.9767 4.22331 13.0201 4.29331 12.1217 4.56165C11.7951 4.66665 11.4451 4.56165 11.2234 4.31665C11.0017 4.07165 10.9317 3.72165 11.0601 3.40665C11.5384 2.18165 12.7051 1.37665 14.0351 1.37665C15.3651 1.37665 16.5317 2.16998 17.0101 3.40665C17.1267 3.72165 17.0684 4.07165 16.8467 4.31665C16.6717 4.50331 16.4267 4.59665 16.1934 4.59665Z" fill="#0D1112" fill-opacity="0.61"/>
<path d="M14.0351 2.6579C14.5068 2.6579 14.9384 2.81989 15.2724 3.10228C15.2336 3.09598 15.1948 3.08996 15.1561 3.08423L15.1445 3.08251L15.1328 3.08099C14.3455 2.9791 13.5666 2.98333 12.8082 3.09835C13.1423 2.81927 13.5708 2.6579 14.0351 2.6579Z" stroke="#0D1112" stroke-opacity="0.61" stroke-width="2.5625"/>
<mask id="path-5-inside-2_408_713" fill="white">
<path d="M14.0225 26.6117C12.8675 26.6117 11.7475 26.145 10.9308 25.3284C10.1141 24.5117 9.64746 23.3917 9.64746 22.2367H11.3975C11.3975 22.925 11.6775 23.6017 12.1675 24.0917C12.6575 24.5817 13.3341 24.8617 14.0225 24.8617C15.4691 24.8617 16.6475 23.6834 16.6475 22.2367H18.3975C18.3975 24.6517 16.4375 26.6117 14.0225 26.6117Z"/>
</mask>
<path d="M14.0225 26.6117C12.8675 26.6117 11.7475 26.145 10.9308 25.3284C10.1141 24.5117 9.64746 23.3917 9.64746 22.2367H11.3975C11.3975 22.925 11.6775 23.6017 12.1675 24.0917C12.6575 24.5817 13.3341 24.8617 14.0225 24.8617C15.4691 24.8617 16.6475 23.6834 16.6475 22.2367H18.3975C18.3975 24.6517 16.4375 26.6117 14.0225 26.6117Z" fill="#0D1112" fill-opacity="0.61"/>
<path d="M9.64746 22.2367V19.6742H7.08496V22.2367H9.64746ZM11.3975 22.2367H13.96V19.6742H11.3975V22.2367ZM16.6475 22.2367V19.6742H14.085V22.2367H16.6475ZM18.3975 22.2367H20.96V19.6742H18.3975V22.2367ZM14.0225 24.0492C13.5512 24.0492 13.0818 23.8554 12.7428 23.5164L9.11883 27.1403C10.4132 28.4346 12.1838 29.1742 14.0225 29.1742V24.0492ZM12.7428 23.5164C12.4037 23.1774 12.21 22.708 12.21 22.2367H7.08496C7.08496 24.0754 7.8245 25.846 9.11883 27.1403L12.7428 23.5164ZM9.64746 24.7992H11.3975V19.6742H9.64746V24.7992ZM8.83496 22.2367C8.83496 23.6063 9.38613 24.9343 10.3555 25.9037L13.9794 22.2797C13.9781 22.2784 13.9715 22.2708 13.9657 22.2569C13.9599 22.2429 13.96 22.2346 13.96 22.2367H8.83496ZM10.3555 25.9037C11.3249 26.873 12.6528 27.4242 14.0225 27.4242V22.2992C14.0245 22.2992 14.0163 22.2993 14.0023 22.2934C13.9884 22.2877 13.9808 22.2811 13.9794 22.2797L10.3555 25.9037ZM14.0225 27.4242C16.8844 27.4242 19.21 25.0986 19.21 22.2367H14.085C14.085 22.2476 14.0832 22.2529 14.0815 22.257C14.079 22.2629 14.074 22.2712 14.0655 22.2797C14.057 22.2882 14.0487 22.2932 14.0428 22.2957C14.0387 22.2975 14.0334 22.2992 14.0225 22.2992V27.4242ZM16.6475 24.7992H18.3975V19.6742H16.6475V24.7992ZM15.835 22.2367C15.835 23.2365 15.0222 24.0492 14.0225 24.0492V29.1742C17.8527 29.1742 20.96 26.0669 20.96 22.2367H15.835Z" fill="#0D1112" fill-opacity="0.61" mask="url(#path-5-inside-2_408_713)"/>
</svg>
