<svg width="20" height="19" viewBox="0 0 20 19" fill="none" xmlns="http://www.w3.org/2000/svg">
<path d="M7.9375 8.5C7.9375 8.35082 7.99676 8.20774 8.10225 8.10225C8.20774 7.99676 8.35082 7.9375 8.5 7.9375H11.5C11.6492 7.9375 11.7923 7.99676 11.8977 8.10225C12.0032 8.20774 12.0625 8.35082 12.0625 8.5C12.0625 8.64918 12.0032 8.79226 11.8977 8.89775C11.7923 9.00324 11.6492 9.0625 11.5 9.0625H8.5C8.35082 9.0625 8.20774 9.00324 8.10225 8.89775C7.99676 8.79226 7.9375 8.64918 7.9375 8.5ZM19.5625 4.75V16.75C19.5625 17.0981 19.4242 17.4319 19.1781 17.6781C18.9319 17.9242 18.5981 18.0625 18.25 18.0625H1.75C1.4019 18.0625 1.06806 17.9242 0.821922 17.6781C0.575781 17.4319 0.4375 17.0981 0.4375 16.75V4.75C0.4375 4.4019 0.575781 4.06806 0.821922 3.82192C1.06806 3.57578 1.4019 3.4375 1.75 3.4375H5.6875V2.5C5.6875 1.95299 5.9048 1.42839 6.29159 1.04159C6.67839 0.654798 7.20299 0.4375 7.75 0.4375H12.25C12.797 0.4375 13.3216 0.654798 13.7084 1.04159C14.0952 1.42839 14.3125 1.95299 14.3125 2.5V3.4375H18.25C18.5981 3.4375 18.9319 3.57578 19.1781 3.82192C19.4242 4.06806 19.5625 4.4019 19.5625 4.75ZM6.8125 3.4375H13.1875V2.5C13.1875 2.25136 13.0887 2.0129 12.9129 1.83709C12.7371 1.66127 12.4986 1.5625 12.25 1.5625H7.75C7.50136 1.5625 7.2629 1.66127 7.08709 1.83709C6.91127 2.0129 6.8125 2.25136 6.8125 2.5V3.4375ZM1.5625 4.75V8.76156C4.14554 10.1892 7.04868 10.9379 10 10.9375C12.9514 10.938 15.8547 10.189 18.4375 8.76062V4.75C18.4375 4.70027 18.4177 4.65258 18.3826 4.61742C18.3474 4.58225 18.2997 4.5625 18.25 4.5625H1.75C1.70027 4.5625 1.65258 4.58225 1.61742 4.61742C1.58225 4.65258 1.5625 4.70027 1.5625 4.75ZM18.4375 16.75V10.0347C15.8246 11.3674 12.9332 12.0623 10 12.0625C7.06688 12.0628 4.17542 11.3682 1.5625 10.0356V16.75C1.5625 16.7997 1.58225 16.8474 1.61742 16.8826C1.65258 16.9177 1.70027 16.9375 1.75 16.9375H18.25C18.2997 16.9375 18.3474 16.9177 18.3826 16.8826C18.4177 16.8474 18.4375 16.7997 18.4375 16.75Z" fill="#1565D8"/>
</svg>
