<svg width="41" height="41" viewBox="0 0 41 41" fill="none" xmlns="http://www.w3.org/2000/svg">
<path d="M16.9766 17.9375C16.9766 17.6826 17.0778 17.4382 17.258 17.258C17.4382 17.0778 17.6826 16.9766 17.9375 16.9766H23.0625C23.3174 16.9766 23.5618 17.0778 23.742 17.258C23.9222 17.4382 24.0234 17.6826 24.0234 17.9375C24.0234 18.1924 23.9222 18.4368 23.742 18.617C23.5618 18.7972 23.3174 18.8984 23.0625 18.8984H17.9375C17.6826 18.8984 17.4382 18.7972 17.258 18.617C17.0778 18.4368 16.9766 18.1924 16.9766 17.9375ZM36.8359 11.5312V32.0312C36.8359 32.6259 36.5997 33.1962 36.1792 33.6167C35.7587 34.0372 35.1884 34.2734 34.5938 34.2734H6.40625C5.81158 34.2734 5.24128 34.0372 4.82078 33.6167C4.40029 33.1962 4.16406 32.6259 4.16406 32.0312V11.5312C4.16406 10.9366 4.40029 10.3663 4.82078 9.94578C5.24128 9.52529 5.81158 9.28906 6.40625 9.28906H13.1328V7.6875C13.1328 6.75303 13.504 5.85683 14.1648 5.19605C14.8256 4.53528 15.7218 4.16406 16.6562 4.16406H24.3438C25.2782 4.16406 26.1744 4.53528 26.8352 5.19605C27.496 5.85683 27.8672 6.75303 27.8672 7.6875V9.28906H34.5938C35.1884 9.28906 35.7587 9.52529 36.1792 9.94578C36.5997 10.3663 36.8359 10.9366 36.8359 11.5312ZM15.0547 9.28906H25.9453V7.6875C25.9453 7.26274 25.7766 6.85538 25.4762 6.55502C25.1759 6.25467 24.7685 6.08594 24.3438 6.08594H16.6562C16.2315 6.08594 15.8241 6.25467 15.5238 6.55502C15.2234 6.85538 15.0547 7.26274 15.0547 7.6875V9.28906ZM6.08594 11.5312V18.3843C10.4986 20.8232 15.4582 22.1023 20.5 22.1016C25.5421 22.1024 30.5018 20.8228 34.9141 18.3827V11.5312C34.9141 11.4463 34.8803 11.3648 34.8202 11.3048C34.7602 11.2447 34.6787 11.2109 34.5938 11.2109H6.40625C6.3213 11.2109 6.23983 11.2447 6.17975 11.3048C6.11968 11.3648 6.08594 11.4463 6.08594 11.5312ZM34.9141 32.0312V20.5593C30.4503 22.8359 25.5108 24.023 20.5 24.0234C15.4893 24.024 10.5497 22.8374 6.08594 20.5609V32.0312C6.08594 32.1162 6.11968 32.1977 6.17975 32.2577C6.23983 32.3178 6.3213 32.3516 6.40625 32.3516H34.5938C34.6787 32.3516 34.7602 32.3178 34.8202 32.2577C34.8803 32.1977 34.9141 32.1162 34.9141 32.0312Z" fill="#1565D8"/>
</svg>
