<svg width="41" height="41" viewBox="0 0 41 41" fill="none" xmlns="http://www.w3.org/2000/svg">
<path d="M24.2926 36.9513C22.2768 36.9513 19.4238 35.5334 17.1688 28.7513L15.9388 25.0613L12.2488 23.8313C5.48383 21.5763 4.06592 18.7234 4.06592 16.7076C4.06592 14.7088 5.48383 11.8388 12.2488 9.56676L26.7526 4.73217C30.3742 3.51926 33.398 3.87801 35.2601 5.72301C37.1222 7.56801 37.4809 10.6088 36.268 14.2305L31.4334 28.7343C29.1613 35.5334 26.3084 36.9513 24.2926 36.9513ZM13.0518 12.0097C8.30258 13.5984 6.61133 15.4776 6.61133 16.7076C6.61133 17.9376 8.30258 19.8168 13.0518 21.3884L17.3568 22.8234C17.7326 22.943 18.0401 23.2505 18.1597 23.6263L19.5947 27.9313C21.1663 32.6805 23.0626 34.3718 24.2926 34.3718C25.5226 34.3718 27.4017 32.6805 28.9905 27.9313L33.8251 13.4276C34.6963 10.7968 34.5426 8.64426 33.4322 7.53384C32.3217 6.42342 30.1692 6.28676 27.5555 7.15801L13.0518 12.0097Z" fill="#292D32"/>
<path d="M17.2711 24.6001C16.9465 24.6001 16.622 24.4805 16.3657 24.2242C15.8703 23.7288 15.8703 22.9088 16.3657 22.4134L22.4815 16.2805C22.977 15.7851 23.797 15.7851 24.2924 16.2805C24.7878 16.7759 24.7878 17.5959 24.2924 18.0913L18.1765 24.2242C17.9374 24.4805 17.5957 24.6001 17.2711 24.6001Z" fill="#292D32"/>
</svg>
